<svg xmlns="http://www.w3.org/2000/svg" width="32.489" height="32.488" viewBox="0 0 32.489 32.488">
  <g id="_x3C_Group_x3E_" transform="translate(0 0.001)">
    <g id="Group_407" data-name="Group 407">
      <path id="_x39_" d="M5.605,27.538a.507.507,0,1,1,0,1.014H1.522A1.532,1.532,0,0,1,.447,28.1v0A1.518,1.518,0,0,1,0,27.027V1.522A1.528,1.528,0,0,1,1.522,0H15.795a1.5,1.5,0,0,1,.613.127,1.631,1.631,0,0,1,.507.366v0l3.83,4.1c.01.011.018.021.028.032a1.5,1.5,0,0,1,.275.447,1.584,1.584,0,0,1,.1.55V8.107a.509.509,0,0,1-1.018,0V5.62a.537.537,0,0,0-.028-.19.709.709,0,0,0-.077-.13c-.007-.007-.014-.01-.021-.018l-3.826-4.1A.621.621,0,0,0,16,1.053a.527.527,0,0,0-.2-.039H1.522a.493.493,0,0,0-.356.152l0,0a.511.511,0,0,0-.148.359v25.5a.506.506,0,0,0,.148.359l0,0a.518.518,0,0,0,.356.148Z" transform="translate(0 -0.001)" fill="#e20001"/>
      <path id="_x37_" d="M20.408,17.864a.507.507,0,1,1,0,1.015H13.326a.507.507,0,1,1,0-1.015Zm-9.5,0a.507.507,0,1,1,0,1.015h-.38a.507.507,0,1,1,0-1.015Z" transform="translate(-7.478 -13.332)" fill="#e20001"/>
      <path id="_x36_" d="M17.071,36.007a.507.507,0,1,1,0,1.015H13.326a.507.507,0,1,1,0-1.015Zm-6.162,0a.507.507,0,1,1,0,1.015h-.38a.507.507,0,1,1,0-1.015Z" transform="translate(-7.478 -26.869)" fill="#e20001"/>
      <path id="_x35_" d="M20.408,26.942a.507.507,0,1,1,0,1.015H13.326a.507.507,0,1,1,0-1.015Zm-9.5,0a.507.507,0,1,1,0,1.015h-.38a.507.507,0,1,1,0-1.015Z" transform="translate(-7.478 -20.105)" fill="#e20001"/>
      <path id="_x34_" d="M61.631.187,66.25,5.2a.507.507,0,0,1-.373.849H62.7a1.958,1.958,0,0,1-1.388-.578l-.032-.032a1.955,1.955,0,0,1-.546-1.357V.507A.508.508,0,0,1,61.237,0a.517.517,0,0,1,.394.187Zm3.09,4.848L61.744,1.807V4.083A.949.949,0,0,0,62,4.735l.021.021a.95.95,0,0,0,.673.278Z" transform="translate(-45.314 -0.001)" fill="#e20001"/>
    </g>
    <g id="Group_408" data-name="Group 408">
      <path id="_x31_1" d="M30.356,54.677H51.263a2.211,2.211,0,0,1,1.568.652v0a2.209,2.209,0,0,1,.652,1.564V71.068a2.225,2.225,0,0,1-2.22,2.219H30.356a2.225,2.225,0,0,1-2.22-2.219V56.9a2.225,2.225,0,0,1,2.22-2.22Zm20.907,1.015H30.356a1.215,1.215,0,0,0-1.2,1.2V71.068a1.208,1.208,0,0,0,1.2,1.2H51.263a1.2,1.2,0,0,0,1.205-1.2V56.9a1.2,1.2,0,0,0-.353-.853v0A1.208,1.208,0,0,0,51.263,55.692Z" transform="translate(-20.994 -40.801)" fill="#051840"/>
      <path id="_x31_0" d="M56.189,38.006h8.481a1.75,1.75,0,0,1,1.244.518,1.771,1.771,0,0,1,.518,1.244v3.484H63.274V41.1h-5.69v2.156H54.427V39.767a1.762,1.762,0,0,1,1.762-1.761Zm8.48,1.015h-8.48a.751.751,0,0,0-.747.747v2.47h1.127V40.081h7.72v2.156h1.127v-2.47a.743.743,0,0,0-.218-.525h0a.732.732,0,0,0-.525-.222Z" transform="translate(-40.612 -28.361)" fill="#051840"/>
      <path id="_x38_" d="M38.97,79.763,30.264,78.11a2.891,2.891,0,0,1-1.522-.757,2.007,2.007,0,0,1-.606-1.452h1.015a1.019,1.019,0,0,0,.31.737,1.927,1.927,0,0,0,.99.479l8.706,1.652ZM53.482,75.9a2,2,0,0,1-.606,1.448v0a2.893,2.893,0,0,1-1.518.757l-8.706,1.667-.19-.993,8.706-1.667a1.948,1.948,0,0,0,.993-.479,1.015,1.015,0,0,0,.307-.737Z" transform="translate(-20.994 -56.638)" fill="#051840"/>
      <path id="_x32_" d="M68.635,75.958h3.35a.958.958,0,0,1,.677.281l0,0a.965.965,0,0,1,.282.68v3.714a2.639,2.639,0,0,1-5.278,0V76.923a.954.954,0,0,1,.286-.68v0A.972.972,0,0,1,68.635,75.958Zm3.3,1.015H68.688v3.664a1.623,1.623,0,0,0,3.245,0Z" transform="translate(-50.493 -56.68)" fill="#051840"/>
      <circle id="_x31_" cx="0.507" cy="0.507" r="0.507" transform="translate(19.308 23.382)" fill="#051840"/>
    </g>
  </g>
</svg>
