<svg xmlns="http://www.w3.org/2000/svg" xmlns:xlink="http://www.w3.org/1999/xlink" width="24.409" height="24.407" viewBox="0 0 24.409 24.407">
  <defs>
    <linearGradient id="linear-gradient" x1="0.068" y1="0.92" x2="0.661" y2="0.34" gradientUnits="objectBoundingBox">
      <stop offset="0" stop-color="#d01616"/>
      <stop offset="1" stop-color="#061840"/>
    </linearGradient>
  </defs>
  <g id="analytics" transform="translate(-0.001)">
    <path id="Path_3602" data-name="Path 3602" d="M21.908,2.5A8.539,8.539,0,0,0,9.347,14.05L7.621,15.777a2.357,2.357,0,0,0-2.743.427L.69,20.393A2.352,2.352,0,0,0,4.016,23.72l4.189-4.189a2.356,2.356,0,0,0,.428-2.743l1.726-1.726a8.539,8.539,0,0,0,14.05-6.523,8.484,8.484,0,0,0-2.5-6.038ZM7.194,18.52,3,22.708a.922.922,0,0,1-1.3-1.3L5.89,17.215a.922.922,0,1,1,1.3,1.3Zm13.7-4.954A7.109,7.109,0,1,1,10.844,3.512,7.109,7.109,0,1,1,20.9,13.566Zm0,0" fill="url(#linear-gradient)"/>
    <path id="Path_3603" data-name="Path 3603" d="M242.6,180.113a.715.715,0,0,0-.715.715v2.289a.715.715,0,1,0,1.43,0v-2.289A.715.715,0,0,0,242.6,180.113Zm0,0" transform="translate(-230.351 -171.526)" fill="#d01616"/>
    <path id="Path_3604" data-name="Path 3604" d="M292.6,130.113a.715.715,0,0,0-.715.715V135.5a.715.715,0,1,0,1.43,0v-4.672A.715.715,0,0,0,292.6,130.113Zm0,0" transform="translate(-277.967 -123.91)" fill="#061840"/>
    <path id="Path_3605" data-name="Path 3605" d="M342.6,150.113a.715.715,0,0,0-.715.715v3.719a.715.715,0,0,0,1.43,0v-3.719A.715.715,0,0,0,342.6,150.113Zm0,0" transform="translate(-325.584 -142.957)" fill="#d01616"/>
    <path id="Path_3606" data-name="Path 3606" d="M392.6,100.113a.715.715,0,0,0-.715.715v6.1a.715.715,0,1,0,1.43,0v-6.1A.715.715,0,0,0,392.6,100.113Zm0,0" transform="translate(-373.2 -95.34)" fill="#061840"/>
  </g>
</svg>
