<svg id="cib:linkedin" xmlns="http://www.w3.org/2000/svg" width="21.608" height="21.608" viewBox="0 0 21.608 21.608">
  <path id="Vector" d="M18.407,18.414h-3.2V13.4c0-1.2-.025-2.733-1.671-2.733-1.666,0-1.92,1.3-1.92,2.644v5.1H8.42V8.1h3.074V9.509h.041a3.368,3.368,0,0,1,3.033-1.666c3.242,0,3.843,2.134,3.843,4.91v5.662ZM4.8,6.693A1.859,1.859,0,1,1,5.837,6.38,1.857,1.857,0,0,1,4.8,6.693Zm1.6,11.721H3.2V8.1H6.407ZM20.011,0H1.594A1.575,1.575,0,0,0,0,1.558V20.051a1.575,1.575,0,0,0,1.594,1.558H20.008a1.581,1.581,0,0,0,1.6-1.558V1.558A1.581,1.581,0,0,0,20.008,0Z" transform="translate(0 0)" fill="#fff"/>
</svg>
