<svg xmlns="http://www.w3.org/2000/svg" xmlns:xlink="http://www.w3.org/1999/xlink" width="40.168" height="39.661" viewBox="0 0 40.168 39.661">
  <defs>
    <linearGradient id="linear-gradient" y1="0.083" x2="0.629" y2="0.831" gradientUnits="objectBoundingBox">
      <stop offset="0" stop-color="#061840"/>
      <stop offset="1" stop-color="#e20001"/>
    </linearGradient>
  </defs>
  <g id="cooperation_1_" data-name="cooperation (1)" transform="translate(0 -3.228)">
    <g id="Group_392" data-name="Group 392" transform="translate(0 3.228)">
      <path id="Path_3612" data-name="Path 3612" d="M38.269,171.259,27.715,177.55a1.846,1.846,0,0,0-.777,2.24,1.973,1.973,0,0,1-1.48.02l-1.365-.536a2.765,2.765,0,0,0-1.7-.108L20.3,179.7q-.122.031-.238.072a3.342,3.342,0,0,0-3.388-.426l-1.211.468a1.978,1.978,0,0,1-1.732-.145l-.4-.238a1.846,1.846,0,0,0-.875-1.876L1.9,171.259A1.256,1.256,0,0,0,0,172.338v11.781a2.332,2.332,0,0,0,1.133,1.994l4.608,2.747a1.841,1.841,0,0,0,2.493-.587l.2.116-.6.832a2.07,2.07,0,0,0,2.043,3.246,2.069,2.069,0,0,0,2.409,1.727,2.07,2.07,0,0,0,2.9,1.577,2.071,2.071,0,0,0,3.557.594l1.548.917a2.071,2.071,0,0,0,3.118-1.6l.06.036a2.073,2.073,0,0,0,3.125-1.678,2.074,2.074,0,0,0,2.619-1.834,2.071,2.071,0,0,0,2.358-3.278l.607-.354a1.842,1.842,0,0,0,2.249.283l1.114-.664a.588.588,0,1,0-.6-1.011l-1.114.664a.665.665,0,0,1-.789-.08c0-.033-4.95-8.3-4.95-8.3a.666.666,0,0,1,.232-.91l10.554-6.291a.078.078,0,0,1,.119.068v11.781a1.15,1.15,0,0,1-.559.983l-1.112.663a.588.588,0,1,0,.6,1.011l1.112-.663a2.332,2.332,0,0,0,1.133-1.994V172.338a1.255,1.255,0,0,0-1.9-1.079Zm-15.588,9.048a1.6,1.6,0,0,1,.981.062l1.368.538a3.144,3.144,0,0,0,2.487-.086l4.012,6.772-.65.38a3.149,3.149,0,0,0-.339.232l-8.58-5.081a.588.588,0,0,0-.888.506v.118a1.566,1.566,0,0,1-1.566,1.566.131.131,0,0,1-.128-.128v-2.793a1.6,1.6,0,0,1,.862-1.423.594.594,0,0,0,.075-.037,1.618,1.618,0,0,1,.275-.1ZM6.848,187.922a.661.661,0,0,1-.5-.073L1.735,185.1a1.15,1.15,0,0,1-.559-.983V172.338a.072.072,0,0,1,.04-.069.08.08,0,0,1,.04-.011.076.076,0,0,1,.04.012l10.554,6.291a.666.666,0,0,1,.232.91l-4.826,8.146A.66.66,0,0,1,6.848,187.922Zm2.812,3.388a.894.894,0,0,1-.871-1.4l.839-1.169a.894.894,0,0,1,.066-.081.6.6,0,0,0,.05-.05.894.894,0,0,1,1.337,1.173v0l-.838,1.167A.888.888,0,0,1,9.66,191.311Zm1.742,1.573a.893.893,0,0,1-.2-1.247l.839-1.169h0l.926-1.29a.888.888,0,0,1,.581-.361.9.9,0,0,1,.147-.012.894.894,0,0,1,.724,1.415l-1.766,2.46A.9.9,0,0,1,11.4,192.883Zm3.074,1.884a.894.894,0,0,1-.871-1.4v0l1.765-2.458a.894.894,0,1,1,1.452,1.042l-1.766,2.46a.888.888,0,0,1-.581.361Zm2.136,1.024a.894.894,0,0,1-.2-1.247l0,0,.586-.816a.894.894,0,0,1,1.451,1.043l-.336.468-.01.014-.241.336a.9.9,0,0,1-1.247.2Zm14.177-5.034a.9.9,0,0,1-1.225.313l-1.36-.806h0l-4.213-2.5a.588.588,0,0,0-.6,1.012l4.215,2.5h0a.894.894,0,0,1-.912,1.538l-1.109-.657,0,0h0l-3.1-1.839a.588.588,0,1,0-.6,1.012l3.1,1.839h0a.894.894,0,0,1-.911,1.538l-1.664-.986,0,0L21.185,193a.588.588,0,0,0-.6,1.013l1.217.721h0a.894.894,0,0,1-.913,1.538l-1.457-.863a2.07,2.07,0,0,0-1.416-3.209,2.07,2.07,0,0,0-2.283-2.811,2.07,2.07,0,0,0-3.556-1.108,2.07,2.07,0,0,0-2.927-.773l-.417-.246,4-6.757.3.174a3.148,3.148,0,0,0,2.755.229l1.211-.468a1.905,1.905,0,0,1,1.843.063,2.779,2.779,0,0,0-.741,1.892v2.793a1.306,1.306,0,0,0,1.3,1.3h0a2.748,2.748,0,0,0,2.614-1.906l8.2,4.853a.585.585,0,0,0,.084.041.6.6,0,0,0,.076.053.9.9,0,0,1,.313,1.225Z" transform="translate(0 -157.911)" fill="url(#linear-gradient)"/>
      <path id="Path_3613" data-name="Path 3613" d="M144.007,18.559H157.5a2.217,2.217,0,0,0,2.215-2.215V8.319A2.217,2.217,0,0,0,157.5,6.1h-3.247V5.171a1.945,1.945,0,0,0-1.943-1.943H149.2a1.945,1.945,0,0,0-1.943,1.943V6.1h-3.247a2.217,2.217,0,0,0-2.215,2.215V12.74a.588.588,0,0,0,1.177,0V11.646a3.522,3.522,0,0,0,2.359.9h.46V13.2a.588.588,0,0,0,1.177,0v-.647h7.573V13.2a.588.588,0,0,0,1.177,0v-.647h.46a3.522,3.522,0,0,0,2.359-.9v4.7a1.039,1.039,0,0,1-1.038,1.038H144.007a1.039,1.039,0,0,1-1.038-1.038v-.854a.588.588,0,0,0-1.177,0v.854a2.217,2.217,0,0,0,2.215,2.215Zm4.424-13.388A.767.767,0,0,1,149.2,4.4h3.109a.767.767,0,0,1,.766.767V6.1h-4.641V5.171Zm7.745,6.2h-.46v-.647a.588.588,0,0,0-1.177,0v.647h-7.573v-.647a.588.588,0,1,0-1.177,0v.647h-.461a2.362,2.362,0,0,1-2.359-2.359v-.7a1.039,1.039,0,0,1,1.038-1.038H157.5a1.039,1.039,0,0,1,1.038,1.038v.7A2.362,2.362,0,0,1,156.176,11.374Z" transform="translate(-130.668 -3.228)" fill="url(#linear-gradient)"/>
    </g>
  </g>
</svg>
