<svg xmlns="http://www.w3.org/2000/svg" xmlns:xlink="http://www.w3.org/1999/xlink" width="52.362" height="50.269" viewBox="0 0 52.362 50.269">
  <defs>
    <linearGradient id="linear-gradient" x1="0.086" y1="0.37" x2="1" y2="0.5" gradientUnits="objectBoundingBox">
      <stop offset="0" stop-color="#e20001"/>
      <stop offset="1" stop-color="#061840"/>
    </linearGradient>
  </defs>
  <path id="global-network" d="M50.336,45.313a.759.759,0,0,0,.04-.1A25.368,25.368,0,0,0,48.895,22.57a3.11,3.11,0,0,0-3.7-4.829c-.537-.549-1.1-1.075-1.685-1.572a3.109,3.109,0,0,0-5.064-3.346,25.054,25.054,0,0,0-22.435.118,3.1,3.1,0,0,0-5.083,3.446,25.315,25.315,0,0,0-2.4,2.395c-.64.733.52,1.738,1.156,1.01a23.78,23.78,0,0,1,2.227-2.229A3.127,3.127,0,0,0,16.5,16.422a33.406,33.406,0,0,1,7.865,3.4,3.159,3.159,0,0,0,.232,2.258,35.307,35.307,0,0,0-5.432,5.9,3.134,3.134,0,0,0-3.709,1.682A47.865,47.865,0,0,0,5.819,30.7,3.129,3.129,0,0,0,4.6,29.452a23.5,23.5,0,0,1,2.814-6.585.768.768,0,0,0-1.3-.811,25.025,25.025,0,0,0-2.994,7,3.115,3.115,0,0,0-.794,6.127,25.349,25.349,0,0,0,8.5,19.069A3.106,3.106,0,0,0,15.8,57.676a25.047,25.047,0,0,0,23.1,0A3.1,3.1,0,0,0,43.925,54.2a25.13,25.13,0,0,0,6.411-8.889ZM49.369,43.6a48.142,48.142,0,0,0-6.931-5.705,3.145,3.145,0,0,0-.777-3.161A47.955,47.955,0,0,0,46.54,23.652a3.069,3.069,0,0,0,1.094-.2A23.828,23.828,0,0,1,49.369,43.6ZM14.057,52.272a33.662,33.662,0,0,1,3.292-18.34,3.134,3.134,0,0,0,3.964-2.391,45.945,45.945,0,0,1,15.17,4.625,3.153,3.153,0,0,0,.508,2.624A46.325,46.325,0,0,1,16.341,53.7a3.1,3.1,0,0,0-2.284-1.432ZM37.92,36.944a1.577,1.577,0,1,1,1.566,1.577A1.573,1.573,0,0,1,37.92,36.944Zm10.193-16.4a1.577,1.577,0,1,1-1.566-1.577,1.573,1.573,0,0,1,1.566,1.577Zm-4.089-1.8a3.149,3.149,0,0,0,1.031,4.53,46.427,46.427,0,0,1-4.716,10.686,3.149,3.149,0,0,0-1.322-.085A35.594,35.594,0,0,0,30.1,22.084a3.156,3.156,0,0,0,.232-2.258A33.4,33.4,0,0,1,37.9,16.511a3.1,3.1,0,0,0,4.718.909q.73.628,1.41,1.316ZM25.782,20.66a1.577,1.577,0,1,1,1.566,1.577,1.573,1.573,0,0,1-1.566-1.577Zm14.843-7.2a1.566,1.566,0,1,1-1.566,1.577A1.573,1.573,0,0,1,40.624,13.459Zm-26.9,3.154a1.566,1.566,0,1,1,1.566-1.577A1.573,1.573,0,0,1,13.721,16.613Zm3.1-1.695a3.115,3.115,0,0,0-.086-.621,23.514,23.514,0,0,1,20.922-.154,3.111,3.111,0,0,0-.13.877,34.944,34.944,0,0,0-7.954,3.475,3.125,3.125,0,0,0-4.448,0,34.946,34.946,0,0,0-8.3-3.577Zm8.79,8.317a3.111,3.111,0,0,0,3.478,0A34.05,34.05,0,0,1,37.6,34.473a3.135,3.135,0,0,0-.382.347,47.471,47.471,0,0,0-16.012-4.838,3.117,3.117,0,0,0-.733-1.2,33.759,33.759,0,0,1,5.13-5.546Zm-7.34,6.149A1.566,1.566,0,1,1,16.7,30.96,1.573,1.573,0,0,1,18.268,29.383ZM1.522,32.168a1.577,1.577,0,1,1,1.566,1.577,1.573,1.573,0,0,1-1.566-1.577Zm2.335,3.015a3.047,3.047,0,0,0,2.331-2.995,86.535,86.535,0,0,1,8.99-.99,3.106,3.106,0,0,0,.861,1.921,35.193,35.193,0,0,0-3.5,19.371,3.105,3.105,0,0,0-.818.5A25.634,25.634,0,0,1,3.857,35.183Zm9.865,21.759a1.577,1.577,0,0,1,0-3.154,1.6,1.6,0,0,1,1.566,1.577A1.573,1.573,0,0,1,13.721,56.942Zm13.626,2.034a23.436,23.436,0,0,1-10.7-2.585,3.192,3.192,0,0,0,.167-1.226,47.854,47.854,0,0,0,21.363-15.4,3.094,3.094,0,0,0,1.472.287,33.884,33.884,0,0,1,.8,3.847.768.768,0,0,0,1.518-.224,35.422,35.422,0,0,0-.854-4.084,3.116,3.116,0,0,0,.509-.4,46.591,46.591,0,0,1,7.111,5.943,23.6,23.6,0,0,1-5.774,7.869,3.094,3.094,0,0,0-.812-.438,35.666,35.666,0,0,0,.194-4.292.768.768,0,0,0-1.535.024,34.129,34.129,0,0,1-.188,4.125,3.146,3.146,0,0,0-2.495,3.923,23.432,23.432,0,0,1-10.779,2.627Zm13.761-1.9A1.566,1.566,0,1,1,42.673,55.5,1.573,1.573,0,0,1,41.108,57.075Z" transform="translate(-0.002 -10.23)" fill="url(#linear-gradient)"/>
</svg>
