<svg xmlns="http://www.w3.org/2000/svg" xmlns:xlink="http://www.w3.org/1999/xlink" width="35.593" height="35.377" viewBox="0 0 35.593 35.377">
  <defs>
    <linearGradient id="linear-gradient" x1="0.892" y1="0.301" x2="0.083" y2="0.924" gradientUnits="objectBoundingBox">
      <stop offset="0" stop-color="#061840"/>
      <stop offset="0.462" stop-color="#85202f"/>
      <stop offset="1" stop-color="#e20001"/>
    </linearGradient>
  </defs>
  <g id="government_1_" data-name="government (1)" transform="translate(0 -0.499)">
    <path id="Path_3610" data-name="Path 3610" d="M233.607,86.679a1.673,1.673,0,1,0-1.673-1.673A1.675,1.675,0,0,0,233.607,86.679Zm0-2.3a.63.63,0,1,1-.63.631A.631.631,0,0,1,233.607,84.375Zm0,0" transform="translate(-215.81 -77.075)" fill="#061840"/>
    <path id="Path_3611" data-name="Path 3611" d="M35.071,32.53h-.63V30.748a.522.522,0,0,0-.521-.521H32.137V28.444a.521.521,0,0,0-.521-.521h-.63V16.513h.63a.521.521,0,0,0,.521-.521V14.21h1.782a.521.521,0,0,0,.521-.521v-2.3a.521.521,0,0,0-.521-.521h-.989L18.093.591a.522.522,0,0,0-.594,0L2.662,10.864H1.673a.521.521,0,0,0-.521.521v2.3a.522.522,0,0,0,.521.521H3.455v1.782a.522.522,0,0,0,.521.521h.63v11.41h-.63a.521.521,0,0,0-.521.521v1.782H1.673a.522.522,0,0,0-.521.521V32.53H.521A.521.521,0,0,0,0,33.051v2.3a.521.521,0,0,0,.521.521h34.55a.521.521,0,0,0,.521-.521v-2.3a.521.521,0,0,0-.521-.521Zm-3.976-2.3H26.379V28.966h4.715Zm-3.564-2.3V16.513h2.412v11.41ZM31.095,15.47H26.379V14.21h4.715Zm-5.237,1.043h.63v11.41h-.63a.521.521,0,0,0-.521.521v1.782H21.2V28.444a.521.521,0,0,0-.521-.521h-.63V16.513h.63a.522.522,0,0,0,.521-.521V14.21h4.14v1.782A.521.521,0,0,0,25.858,16.513Zm-10.419-2.3h4.715V15.47H15.439Zm1.151,2.3H19v11.41H16.59Zm3.564,12.452v1.261H15.439V28.966ZM2.194,11.907h9.1a.521.521,0,1,0,0-1.043h-6.8l13.3-9.21,13.3,9.21H13.378a.521.521,0,0,0,0,1.043H33.4v1.261H2.194Zm2.3,2.3H9.213V15.47H4.5Zm3.564,2.3v11.41H5.649V16.513ZM4.5,28.966H9.213v1.261H4.5Zm5.237-1.043H9.1V16.513h.63a.522.522,0,0,0,.521-.521V14.21H14.4v1.782a.521.521,0,0,0,.521.521h.63v11.41h-.63a.521.521,0,0,0-.521.521v1.782h-4.14V28.444A.521.521,0,0,0,9.735,27.923Zm-7.54,3.346H33.4v1.261H2.194ZM34.55,34.833H1.043V33.572H34.55Zm0,0" fill="url(#linear-gradient)"/>
  </g>
</svg>
