<svg xmlns="http://www.w3.org/2000/svg" width="147.758" height="205.42" viewBox="0 0 147.758 205.42">
  <g id="Group_97" data-name="Group 97" opacity="0.6">
    <ellipse id="Ellipse_10" data-name="Ellipse 10" cx="1.802" cy="1.802" rx="1.802" ry="1.802" transform="translate(0 201.816)" fill="#fff"/>
    <ellipse id="Ellipse_11" data-name="Ellipse 11" cx="1.802" cy="1.802" rx="1.802" ry="1.802" transform="translate(0 172.986)" fill="#fff"/>
    <ellipse id="Ellipse_12" data-name="Ellipse 12" cx="1.802" cy="1.802" rx="1.802" ry="1.802" transform="translate(0 144.154)" fill="#fff"/>
    <ellipse id="Ellipse_13" data-name="Ellipse 13" cx="1.802" cy="1.802" rx="1.802" ry="1.802" transform="translate(0 115.323)" fill="#fff"/>
    <ellipse id="Ellipse_14" data-name="Ellipse 14" cx="1.802" cy="1.802" rx="1.802" ry="1.802" transform="translate(0 86.493)" fill="#fff"/>
    <ellipse id="Ellipse_15" data-name="Ellipse 15" cx="1.802" cy="1.802" rx="1.802" ry="1.802" transform="translate(0 57.661)" fill="#fff"/>
    <ellipse id="Ellipse_16" data-name="Ellipse 16" cx="1.802" cy="1.802" rx="1.802" ry="1.802" transform="translate(0 28.83)" fill="#fff"/>
    <ellipse id="Ellipse_17" data-name="Ellipse 17" cx="1.802" cy="1.802" rx="1.802" ry="1.802" transform="translate(0 0)" fill="#fff"/>
    <ellipse id="Ellipse_18" data-name="Ellipse 18" cx="1.802" cy="1.802" rx="1.802" ry="1.802" transform="translate(28.83 201.816)" fill="#fff"/>
    <ellipse id="Ellipse_19" data-name="Ellipse 19" cx="1.802" cy="1.802" rx="1.802" ry="1.802" transform="translate(28.83 172.986)" fill="#fff"/>
    <ellipse id="Ellipse_20" data-name="Ellipse 20" cx="1.802" cy="1.802" rx="1.802" ry="1.802" transform="translate(28.83 144.154)" fill="#fff"/>
    <ellipse id="Ellipse_21" data-name="Ellipse 21" cx="1.802" cy="1.802" rx="1.802" ry="1.802" transform="translate(28.83 115.323)" fill="#fff"/>
    <ellipse id="Ellipse_22" data-name="Ellipse 22" cx="1.802" cy="1.802" rx="1.802" ry="1.802" transform="translate(28.83 86.493)" fill="#fff"/>
    <ellipse id="Ellipse_23" data-name="Ellipse 23" cx="1.802" cy="1.802" rx="1.802" ry="1.802" transform="translate(28.83 57.661)" fill="#fff"/>
    <ellipse id="Ellipse_24" data-name="Ellipse 24" cx="1.802" cy="1.802" rx="1.802" ry="1.802" transform="translate(28.83 28.83)" fill="#fff"/>
    <ellipse id="Ellipse_25" data-name="Ellipse 25" cx="1.802" cy="1.802" rx="1.802" ry="1.802" transform="translate(28.83 0)" fill="#fff"/>
    <ellipse id="Ellipse_26" data-name="Ellipse 26" cx="1.802" cy="1.802" rx="1.802" ry="1.802" transform="translate(57.661 201.816)" fill="#fff"/>
    <ellipse id="Ellipse_27" data-name="Ellipse 27" cx="1.802" cy="1.802" rx="1.802" ry="1.802" transform="translate(57.661 172.986)" fill="#fff"/>
    <ellipse id="Ellipse_28" data-name="Ellipse 28" cx="1.802" cy="1.802" rx="1.802" ry="1.802" transform="translate(57.661 144.154)" fill="#fff"/>
    <ellipse id="Ellipse_29" data-name="Ellipse 29" cx="1.802" cy="1.802" rx="1.802" ry="1.802" transform="translate(57.661 115.323)" fill="#fff"/>
    <ellipse id="Ellipse_30" data-name="Ellipse 30" cx="1.802" cy="1.802" rx="1.802" ry="1.802" transform="translate(57.661 86.493)" fill="#fff"/>
    <ellipse id="Ellipse_31" data-name="Ellipse 31" cx="1.802" cy="1.802" rx="1.802" ry="1.802" transform="translate(57.661 57.661)" fill="#fff"/>
    <ellipse id="Ellipse_32" data-name="Ellipse 32" cx="1.802" cy="1.802" rx="1.802" ry="1.802" transform="translate(57.661 28.83)" fill="#fff"/>
    <ellipse id="Ellipse_33" data-name="Ellipse 33" cx="1.802" cy="1.802" rx="1.802" ry="1.802" transform="translate(57.661 0)" fill="#fff"/>
    <ellipse id="Ellipse_34" data-name="Ellipse 34" cx="1.802" cy="1.802" rx="1.802" ry="1.802" transform="translate(86.493 201.816)" fill="#fff"/>
    <ellipse id="Ellipse_35" data-name="Ellipse 35" cx="1.802" cy="1.802" rx="1.802" ry="1.802" transform="translate(86.493 172.986)" fill="#fff"/>
    <ellipse id="Ellipse_36" data-name="Ellipse 36" cx="1.802" cy="1.802" rx="1.802" ry="1.802" transform="translate(86.493 144.154)" fill="#fff"/>
    <ellipse id="Ellipse_37" data-name="Ellipse 37" cx="1.802" cy="1.802" rx="1.802" ry="1.802" transform="translate(86.493 115.323)" fill="#fff"/>
    <ellipse id="Ellipse_38" data-name="Ellipse 38" cx="1.802" cy="1.802" rx="1.802" ry="1.802" transform="translate(86.493 86.493)" fill="#fff"/>
    <ellipse id="Ellipse_39" data-name="Ellipse 39" cx="1.802" cy="1.802" rx="1.802" ry="1.802" transform="translate(86.493 57.661)" fill="#fff"/>
    <ellipse id="Ellipse_40" data-name="Ellipse 40" cx="1.802" cy="1.802" rx="1.802" ry="1.802" transform="translate(86.493 28.83)" fill="#fff"/>
    <ellipse id="Ellipse_41" data-name="Ellipse 41" cx="1.802" cy="1.802" rx="1.802" ry="1.802" transform="translate(86.493 0)" fill="#fff"/>
    <ellipse id="Ellipse_42" data-name="Ellipse 42" cx="1.802" cy="1.802" rx="1.802" ry="1.802" transform="translate(115.323 201.816)" fill="#fff"/>
    <ellipse id="Ellipse_43" data-name="Ellipse 43" cx="1.802" cy="1.802" rx="1.802" ry="1.802" transform="translate(115.323 172.986)" fill="#fff"/>
    <ellipse id="Ellipse_44" data-name="Ellipse 44" cx="1.802" cy="1.802" rx="1.802" ry="1.802" transform="translate(115.323 144.154)" fill="#fff"/>
    <ellipse id="Ellipse_45" data-name="Ellipse 45" cx="1.802" cy="1.802" rx="1.802" ry="1.802" transform="translate(115.323 115.323)" fill="#fff"/>
    <ellipse id="Ellipse_46" data-name="Ellipse 46" cx="1.802" cy="1.802" rx="1.802" ry="1.802" transform="translate(115.323 86.493)" fill="#fff"/>
    <ellipse id="Ellipse_47" data-name="Ellipse 47" cx="1.802" cy="1.802" rx="1.802" ry="1.802" transform="translate(115.323 57.661)" fill="#fff"/>
    <ellipse id="Ellipse_48" data-name="Ellipse 48" cx="1.802" cy="1.802" rx="1.802" ry="1.802" transform="translate(115.323 28.83)" fill="#fff"/>
    <ellipse id="Ellipse_49" data-name="Ellipse 49" cx="1.802" cy="1.802" rx="1.802" ry="1.802" transform="translate(115.323 0)" fill="#fff"/>
    <ellipse id="Ellipse_50" data-name="Ellipse 50" cx="1.802" cy="1.802" rx="1.802" ry="1.802" transform="translate(144.154 201.816)" fill="#fff"/>
    <ellipse id="Ellipse_51" data-name="Ellipse 51" cx="1.802" cy="1.802" rx="1.802" ry="1.802" transform="translate(144.154 172.986)" fill="#fff"/>
    <ellipse id="Ellipse_52" data-name="Ellipse 52" cx="1.802" cy="1.802" rx="1.802" ry="1.802" transform="translate(144.154 144.154)" fill="#fff"/>
    <ellipse id="Ellipse_53" data-name="Ellipse 53" cx="1.802" cy="1.802" rx="1.802" ry="1.802" transform="translate(144.154 115.323)" fill="#fff"/>
    <ellipse id="Ellipse_54" data-name="Ellipse 54" cx="1.802" cy="1.802" rx="1.802" ry="1.802" transform="translate(144.154 86.493)" fill="#fff"/>
    <ellipse id="Ellipse_55" data-name="Ellipse 55" cx="1.802" cy="1.802" rx="1.802" ry="1.802" transform="translate(144.154 57.661)" fill="#fff"/>
    <ellipse id="Ellipse_56" data-name="Ellipse 56" cx="1.802" cy="1.802" rx="1.802" ry="1.802" transform="translate(144.154 28.83)" fill="#fff"/>
    <ellipse id="Ellipse_57" data-name="Ellipse 57" cx="1.802" cy="1.802" rx="1.802" ry="1.802" transform="translate(144.154 0)" fill="#fff"/>
  </g>
</svg>
