<svg xmlns="http://www.w3.org/2000/svg" width="230.387" height="442.826" viewBox="0 0 230.387 442.826">
  <g id="Group_5" data-name="Group 5" transform="translate(-4511.88 -1335.853)">
    <path id="Path_11" data-name="Path 11" d="M0-3.126,53.962,51.7H0Z" transform="translate(4573.843 1338.979)" fill="#bfc8ce"/>
    <path id="Path_13" data-name="Path 13" d="M0-3.126,53.962,51.7H0Z" transform="translate(4579.843 1504.979)" fill="#d01616"/>
    <path id="Path_23" data-name="Path 23" d="M0-3.126,53.962,51.7H0Z" transform="translate(4688.305 1726.979)" fill="#bfc8ce" opacity="0.3"/>
    <path id="Path_26" data-name="Path 26" d="M0-3.126,53.962,51.7H0Z" transform="translate(4525.419 1723.979)" fill="#d01616"/>
    <path id="Path_28" data-name="Path 28" d="M0-3.126,53.962,51.7H0Z" transform="translate(4525.419 1669.154)" fill="#d01616"/>
    <path id="Path_19" data-name="Path 19" d="M0-3.126,53.962,51.7H0Z" transform="translate(4525.88 1448.153)" fill="#203d5c"/>
    <path id="Path_20" data-name="Path 20" d="M0-3.126,53.962,51.7H0Z" transform="translate(4525.88 1393.327)" fill="#203d5c" opacity="0.16"/>
    <path id="Path_17" data-name="Path 17" d="M0-3.126,53.962,51.7H0Z" transform="translate(4525.88 1504.979)" fill="#203d5c"/>
    <path id="Path_21" data-name="Path 21" d="M0-3.126,53.962,51.7H0Z" transform="translate(4634.343 1666.392)" fill="#203d5c"/>
    <path id="Path_12" data-name="Path 12" d="M53.962,51.7,0-3.126H53.962Z" transform="translate(4511.88 1366.3)" fill="#d01616"/>
    <path id="Path_14" data-name="Path 14" d="M53.962,51.7,0-3.126H53.962Z" transform="translate(4659.114 1494.948) rotate(135)" fill="#bfc8ce"/>
    <path id="Path_15" data-name="Path 15" d="M53.962,51.7,0-3.126H53.962Z" transform="translate(4579.881 1611.566)" fill="#d01616"/>
    <path id="Path_24" data-name="Path 24" d="M53.962,51.7,0-3.126H53.962Z" transform="translate(4579.881 1721.217)" fill="#d01616"/>
    <path id="Path_25" data-name="Path 25" d="M53.962,51.7,0-3.126H53.962Z" transform="translate(4525.419 1721.217)" fill="#203d5c"/>
    <path id="Path_27" data-name="Path 27" d="M53.962,51.7,0-3.126H53.962Z" transform="translate(4525.419 1666.392)" fill="#d01616"/>
    <path id="Path_22" data-name="Path 22" d="M53.962,51.7,0-3.126H53.962Z" transform="translate(4688.305 1721.217)" fill="#d01616"/>
    <path id="Path_16" data-name="Path 16" d="M53.962,51.7,0-3.126H53.962Z" transform="translate(4525.88 1559.805)" fill="#203d5c"/>
    <path id="Path_18" data-name="Path 18" d="M53.962,51.7,0-3.126H53.962Z" transform="translate(4525.88 1448.153)" fill="#203d5c"/>
    <path id="Path_36" data-name="Path 36" d="M0-3.126,53.962,51.7H0Z" transform="translate(4525.419 1669.154)" fill="#203d5c" opacity="0.35"/>
    <rect id="Rectangle_82" data-name="Rectangle 82" width="53" height="53" transform="translate(4580.268 1663.679)" fill="#203d5c"/>
    <rect id="Rectangle_83" data-name="Rectangle 83" width="53" height="53" transform="translate(4526.268 1609.679)" fill="#203d5c"/>
    <rect id="Rectangle_84" data-name="Rectangle 84" width="53" height="53" transform="translate(4526.268 1609.679)" fill="#d01616" opacity="0.32"/>
    <path id="Path_37" data-name="Path 37" d="M53.962,51.7,0-3.126H53.962Z" transform="translate(4659.114 1494.948) rotate(135)" fill="#d01616" opacity="0.12"/>
    <path id="Path_38" data-name="Path 38" d="M0-3.126,53.962,51.7H0Z" transform="translate(4688.305 1726.979)" fill="#d01616" opacity="0.3"/>
    <path id="Path_39" data-name="Path 39" d="M0-3.126,53.962,51.7H0Z" transform="translate(4634.343 1666.392)" fill="#d01616" opacity="0.24"/>
  </g>
</svg>
