<svg xmlns="http://www.w3.org/2000/svg" width="290.094" height="266.063" viewBox="0 0 290.094 266.063">
  <g id="Group_93" data-name="Group 93" transform="translate(51.428 -3518.937)">
    <path id="Path_24" data-name="Path 24" d="M82.792,80.99,0-3.126H82.792Z" transform="translate(129.395 3662.247) rotate(135)" fill="#E20001"/>
    <path id="Path_33" data-name="Path 33" d="M82.792,80.99,0-3.126H82.792Z" transform="translate(64.383 3600.747) rotate(135)" fill="#E20001"/>
    <path id="Path_31" data-name="Path 31" d="M62.682,60.559,0-3.126H62.682Z" transform="translate(236.456 3674.133) rotate(135)" fill="#E20001"/>
    <path id="Path_29" data-name="Path 29" d="M82.792,0,0,84.116H82.792Z" transform="translate(72.126 3723.989) rotate(-135)" fill="#E20001"/>
    <path id="Path_34" data-name="Path 34" d="M43.128,0,0,43.818H43.128Z" transform="translate(17.234 3601.74) rotate(-135)" fill="#E20001"/>
    <path id="Path_35" data-name="Path 35" d="M20.094,0,0,20.416H20.094Z" transform="translate(40.105 3547.582) rotate(-135)" fill="#E20001"/>
    <path id="Path_30" data-name="Path 30" d="M82.792,0,0,84.116H82.792Z" transform="translate(135.032 3785) rotate(-135)" fill="#E20001"/>
    <path id="Path_32" data-name="Path 32" d="M82.792,0,0,84.116H82.792Z" transform="translate(7.115 3785) rotate(-135)" fill="#E20001"/>
  </g>
</svg>
