<svg xmlns="http://www.w3.org/2000/svg" width="266.063" height="290.095" viewBox="0 0 266.063 290.095">
  <g id="Group_55" data-name="Group 55" transform="translate(266.063) rotate(90)" opacity="0.33">
    <path id="Path_24" data-name="Path 24" d="M82.792,0,0,84.117H82.792Z" transform="translate(166.54 86.04) rotate(45)" fill="#e20001"/>
    <path id="Path_33" data-name="Path 33" d="M82.792,0,0,84.117H82.792Z" transform="translate(231.552 24.541) rotate(45)" fill="#e20001"/>
    <path id="Path_31" data-name="Path 31" d="M62.682,0,0,63.685H62.682Z" transform="translate(45.032 112.374) rotate(45)" fill="#e20001"/>
    <path id="Path_29" data-name="Path 29" d="M82.792,84.117,0,0H82.792Z" transform="translate(107.061 145.572) rotate(-45)" fill="#e20001"/>
    <path id="Path_34" data-name="Path 34" d="M43.128,43.818,0,0H43.128Z" transform="translate(190.448 51.819) rotate(-45)" fill="#e20001"/>
    <path id="Path_35" data-name="Path 35" d="M20.094,20.416,0,0H20.094Z" transform="translate(184.125 14.209) rotate(-45)" fill="#e20001"/>
    <path id="Path_30" data-name="Path 30" d="M82.792,84.117,0,0H82.792Z" transform="translate(44.155 206.583) rotate(-45)" fill="#e20001"/>
    <path id="Path_32" data-name="Path 32" d="M82.792,84.117,0,0H82.792Z" transform="translate(172.072 206.583) rotate(-45)" fill="#e20001"/>
  </g>
</svg>
