<svg xmlns="http://www.w3.org/2000/svg" xmlns:xlink="http://www.w3.org/1999/xlink" width="92" height="65" viewBox="0 0 92 65">
  <defs>
    <clipPath id="clip-path">
      <rect id="Rectangle_2696" data-name="Rectangle 2696" width="46" height="65" transform="translate(0 0.434)" fill="#f1f3f8" stroke="#061840" stroke-width="3"/>
    </clipPath>
    <clipPath id="clip-path-2">
      <rect id="Rectangle_2697" data-name="Rectangle 2697" width="46" height="65" transform="translate(-0.092 0.434)" fill="#f1f3f8" stroke="#e20001" stroke-width="3"/>
    </clipPath>
  </defs>
  <g id="Group_99" data-name="Group 99" transform="translate(-320.909 -270.434)">
    <g id="Mask_Group_125" data-name="Mask Group 125" transform="translate(366.908 270)" clip-path="url(#clip-path)">
      <g id="Layer_2" data-name="Layer 2" transform="translate(-25.168 8.839)">
        <path id="Path_1629" data-name="Path 1629" d="M47.915,21.135a8.091,8.091,0,0,1-2.022-1.666,7.906,7.906,0,0,1,.648-2.67c.681-1.921,1.451-4.1.215-5.79S43.188,9.37,41.14,9.416a8.009,8.009,0,0,1-2.7-.183,7.885,7.885,0,0,1-.995-2.488c-.58-1.978-1.243-4.213-3.277-4.882-1.961-.632-3.777.758-5.383,1.98a7.688,7.688,0,0,1-2.369,1.477,7.688,7.688,0,0,1-2.394-1.477c-1.6-1.215-3.41-2.619-5.381-1.978-2.029.66-2.692,2.9-3.277,4.88a8,8,0,0,1-.985,2.483,8.149,8.149,0,0,1-2.708.187C9.614,9.36,7.3,9.3,6.052,11.008s-.468,3.869.215,5.788a7.808,7.808,0,0,1,.658,2.67,8.072,8.072,0,0,1-2.02,1.669c-1.713,1.17-3.658,2.5-3.658,4.664s1.945,3.49,3.658,4.665a8.072,8.072,0,0,1,2.02,1.666A7.805,7.805,0,0,1,6.286,34.8c-.679,1.919-1.446,4.1-.213,5.788s3.56,1.638,5.617,1.591a8.018,8.018,0,0,1,2.706.183,7.957,7.957,0,0,1,.992,2.488c.58,1.978,1.243,4.213,3.277,4.882a3.333,3.333,0,0,0,1.009.159,7.915,7.915,0,0,0,4.372-2.139,7.689,7.689,0,0,1,2.369-1.477,7.688,7.688,0,0,1,2.394,1.477c1.6,1.224,3.419,2.621,5.383,1.978,2.029-.66,2.692-2.9,3.277-4.877a7.929,7.929,0,0,1,.992-2.486,8.016,8.016,0,0,1,2.7-.187c2.055.049,4.37.117,5.617-1.591s.468-3.869-.215-5.79a7.911,7.911,0,0,1-.658-2.666,8.042,8.042,0,0,1,2.022-1.669c1.713-1.17,3.658-2.5,3.658-4.667S49.631,22.307,47.915,21.135Z" transform="translate(-1.247 -1.705)" fill="#f1f3f8" stroke="#061840" stroke-width="2"/>
      </g>
    </g>
    <g id="Mask_Group_126" data-name="Mask Group 126" transform="translate(321 270)" clip-path="url(#clip-path-2)">
      <g id="Layer_2-2" data-name="Layer 2" transform="translate(20.74 8.839)">
        <path id="Path_1631" data-name="Path 1631" d="M4.914,21.135a8.091,8.091,0,0,0,2.022-1.666,7.906,7.906,0,0,0-.648-2.67c-.681-1.921-1.451-4.1-.215-5.79S9.642,9.37,11.69,9.416a8.009,8.009,0,0,0,2.7-.183,7.885,7.885,0,0,0,.995-2.488c.58-1.978,1.243-4.213,3.277-4.882,1.961-.632,3.777.758,5.383,1.98a7.688,7.688,0,0,0,2.369,1.477A7.688,7.688,0,0,0,28.81,3.844c1.6-1.215,3.41-2.619,5.381-1.978,2.029.66,2.692,2.9,3.277,4.88a8,8,0,0,0,.985,2.483,8.149,8.149,0,0,0,2.708.187c2.055-.056,4.37-.117,5.617,1.591s.468,3.869-.215,5.788a7.808,7.808,0,0,0-.658,2.67,8.072,8.072,0,0,0,2.02,1.669c1.713,1.17,3.658,2.5,3.658,4.664s-1.945,3.49-3.658,4.665A8.072,8.072,0,0,0,45.9,32.13a7.805,7.805,0,0,0,.639,2.673c.679,1.919,1.446,4.1.213,5.788s-3.56,1.638-5.617,1.591a8.018,8.018,0,0,0-2.706.183,7.957,7.957,0,0,0-.992,2.488c-.58,1.978-1.243,4.213-3.277,4.882a3.333,3.333,0,0,1-1.009.159,7.915,7.915,0,0,1-4.372-2.139,7.689,7.689,0,0,0-2.369-1.477,7.688,7.688,0,0,0-2.394,1.477c-1.6,1.224-3.419,2.621-5.383,1.978-2.029-.66-2.692-2.9-3.277-4.877a7.929,7.929,0,0,0-.992-2.486,8.016,8.016,0,0,0-2.7-.187c-2.055.049-4.37.117-5.617-1.591s-.468-3.869.215-5.79a7.911,7.911,0,0,0,.658-2.666,8.042,8.042,0,0,0-2.022-1.669c-1.713-1.17-3.658-2.5-3.658-4.667S3.2,22.307,4.914,21.135Z" transform="translate(-1.247 -1.705)" fill="#f1f3f8" stroke="#e20001" stroke-width="3"/>
      </g>
    </g>
    <g id="Group_98" data-name="Group 98" transform="translate(358.464 297.089)">
      <line id="Line_41" data-name="Line 41" x2="5.196" y2="5.196" transform="translate(0 6.495)" fill="none" stroke="#061840" stroke-linecap="round" stroke-width="3"/>
      <line id="Line_42" data-name="Line 42" y1="11.692" x2="11.692" transform="translate(5.196 0)" fill="none" stroke="#e20001" stroke-linecap="round" stroke-width="3"/>
    </g>
  </g>
</svg>
