<svg xmlns="http://www.w3.org/2000/svg" width="1930.289" height="1171.96" viewBox="0 0 1930.289 1171.96">
  <g id="Group_81" data-name="Group 81" transform="translate(-0.251)">
    <g id="Group_35" data-name="Group 35" transform="translate(1650.168 913.85) rotate(-140)">
      <rect id="Rectangle_67" data-name="Rectangle 67" width="90" height="90" transform="translate(90 0)" fill="#f8f8f8"/>
      <rect id="Rectangle_69" data-name="Rectangle 69" width="90" height="90" transform="translate(0 0)" fill="#e20001"/>
      <rect id="Rectangle_68" data-name="Rectangle 68" width="90" height="90" transform="translate(180 0)" fill="#f8f8f8"/>
    </g>
    <g id="Group_31" data-name="Group 31" transform="translate(468.149 551.943) rotate(-140)">
      <rect id="Rectangle_67-2" data-name="Rectangle 67" width="150" height="150" transform="translate(298.745 0.391)" fill="#e6e5e5"/>
      <rect id="Rectangle_69-2" data-name="Rectangle 69" width="150" height="150" transform="translate(150 0.391)" fill="#fff"/>
      <rect id="Rectangle_70" data-name="Rectangle 70" width="150" height="150" transform="translate(0 0)" fill="#fff"/>
      <rect id="Rectangle_68-2" data-name="Rectangle 68" width="150" height="150" transform="translate(447.486 0.391)" fill="#662b47"/>
    </g>
    <g id="Group_38" data-name="Group 38" transform="translate(1620.917 516.222) rotate(-140)" opacity="0.64">
      <rect id="Rectangle_67-3" data-name="Rectangle 67" width="150" height="150" transform="translate(298.745 0.391)" fill="#f3f4f4"/>
      <rect id="Rectangle_69-3" data-name="Rectangle 69" width="150" height="150" transform="translate(150 0.391)" fill="#f2f3f3"/>
      <rect id="Rectangle_70-2" data-name="Rectangle 70" width="150" height="150" transform="translate(0 0)" fill="#d6d6db"/>
      <rect id="Rectangle_68-3" data-name="Rectangle 68" width="150" height="150" transform="translate(447.486 0.391)" fill="#f2f2f4"/>
    </g>
    <g id="Group_37" data-name="Group 37" transform="translate(457.701 1171.96) rotate(-140)">
      <rect id="Rectangle_67-4" data-name="Rectangle 67" width="150" height="150" transform="translate(298.745 0.391)" fill="#e6e5e5"/>
      <rect id="Rectangle_69-4" data-name="Rectangle 69" width="150" height="150" transform="translate(150 0.391)" fill="#f9f9f9"/>
      <rect id="Rectangle_70-3" data-name="Rectangle 70" width="150" height="150" transform="translate(0 0)" fill="#22254e" opacity="0.03"/>
      <rect id="Rectangle_68-4" data-name="Rectangle 68" width="150" height="150" transform="translate(447.486 0.391)" fill="#662b47"/>
    </g>
    <g id="Group_33" data-name="Group 33" transform="translate(1572.339 1163.353) rotate(-140)">
      <rect id="Rectangle_67-5" data-name="Rectangle 67" width="150" height="150" transform="translate(298.745 0.391)" fill="#f8f8f8"/>
      <rect id="Rectangle_69-5" data-name="Rectangle 69" width="150" height="150" transform="translate(150 0.391)" fill="#fefefe"/>
      <rect id="Rectangle_70-4" data-name="Rectangle 70" width="150" height="150" transform="translate(0 0)" fill="#22254e" opacity="0.02"/>
      <rect id="Rectangle_68-5" data-name="Rectangle 68" width="150" height="150" transform="translate(447.486 0.391)" fill="#e5e4e5"/>
    </g>
    <g id="Group_32" data-name="Group 32" transform="translate(681.354 534.984) rotate(-140)">
      <rect id="Rectangle_67-6" data-name="Rectangle 67" width="150" height="150" transform="translate(298.745 0.391)" fill="#f9f9f9"/>
      <rect id="Rectangle_69-6" data-name="Rectangle 69" width="150" height="150" transform="translate(150 0.391)" fill="#fefefe"/>
      <rect id="Rectangle_70-5" data-name="Rectangle 70" width="150" height="150" transform="translate(0 0)" fill="#fff"/>
      <rect id="Rectangle_68-6" data-name="Rectangle 68" width="150" height="150" transform="translate(447.486 0.391)" fill="#e5e4e5"/>
    </g>
    <g id="Group_39" data-name="Group 39" transform="translate(1834.122 499.263) rotate(-140)">
      <rect id="Rectangle_67-7" data-name="Rectangle 67" width="150" height="150" transform="translate(298.745 0.391)" fill="#f8f8f8"/>
      <rect id="Rectangle_69-7" data-name="Rectangle 69" width="150" height="150" transform="translate(150 0.391)" fill="#e20001"/>
      <rect id="Rectangle_70-6" data-name="Rectangle 70" width="150" height="150" transform="translate(0 0)" fill="#22254e"/>
      <rect id="Rectangle_68-7" data-name="Rectangle 68" width="150" height="150" transform="translate(447.486 0.391)" fill="#e5e4e5"/>
    </g>
    <g id="Group_36" data-name="Group 36" transform="translate(670.906 1155.001) rotate(-140)">
      <rect id="Rectangle_67-8" data-name="Rectangle 67" width="150" height="150" transform="translate(298.745 0.391)" fill="#f9f9f9"/>
      <rect id="Rectangle_69-8" data-name="Rectangle 69" width="150" height="150" transform="translate(150 0.391)" fill="#fefefe"/>
      <rect id="Rectangle_70-7" data-name="Rectangle 70" width="150" height="150" transform="translate(0 0)" fill="#fefefe"/>
      <rect id="Rectangle_68-8" data-name="Rectangle 68" width="150" height="150" transform="translate(447.486 0.391)" fill="#e5e4e5"/>
    </g>
    <g id="Group_34" data-name="Group 34" transform="translate(1484.509 891.85) rotate(-140)" opacity="0.13">
      <rect id="Rectangle_67-9" data-name="Rectangle 67" width="90" height="90" transform="translate(90 0)" fill="#cfcece"/>
      <rect id="Rectangle_69-9" data-name="Rectangle 69" width="90" height="90" transform="translate(0 0)" fill="#fdfdfd"/>
      <rect id="Rectangle_68-9" data-name="Rectangle 68" width="90" height="90" transform="translate(180 0)" fill="#3d3b3c"/>
    </g>
  </g>
</svg>
