<svg xmlns="http://www.w3.org/2000/svg" width="266.063" height="290.094" viewBox="0 0 266.063 290.094">
  <g id="Group_89" data-name="Group 89" transform="translate(0 290.094) rotate(-90)">
    <path id="Path_24" data-name="Path 24" d="M82.792,84.116,0,0H82.792Z" transform="translate(107.061 120.543) rotate(-45)" fill="#E20001"/>
    <path id="Path_33" data-name="Path 33" d="M82.792,84.116,0,0H82.792Z" transform="translate(172.072 182.043) rotate(-45)" fill="#E20001"/>
    <path id="Path_31" data-name="Path 31" d="M62.682,63.684,0,0H62.682Z" transform="translate(0 108.657) rotate(-45)" fill="#E20001"/>
    <path id="Path_29" data-name="Path 29" d="M82.792,0,0,84.116H82.792Z" transform="translate(166.54 61.011) rotate(45)" fill="#E20001"/>
    <path id="Path_34" data-name="Path 34" d="M43.128,0,0,43.818H43.128Z" transform="translate(221.432 183.26) rotate(45)" fill="#E20001"/>
    <path id="Path_35" data-name="Path 35" d="M20.094,0,0,20.416H20.094Z" transform="translate(198.561 237.417) rotate(45)" fill="#E20001"/>
    <path id="Path_30" data-name="Path 30" d="M82.792,0,0,84.116H82.792Z" transform="translate(103.634 0) rotate(45)" fill="#E20001"/>
    <path id="Path_32" data-name="Path 32" d="M82.792,0,0,84.116H82.792Z" transform="translate(231.551 0) rotate(45)" fill="#E20001"/>
  </g>
</svg>
