<svg xmlns="http://www.w3.org/2000/svg" xmlns:xlink="http://www.w3.org/1999/xlink" width="1201" height="699" viewBox="0 0 1201 699">
  <defs>
    <linearGradient id="linear-gradient" x1="0.845" y1="0.646" x2="-1.741" y2="-1.343" gradientUnits="objectBoundingBox">
      <stop offset="0" stop-color="#061840"/>
      <stop offset="1" stop-color="#fff"/>
    </linearGradient>
  </defs>
  <g id="Group_78" data-name="Group 78" transform="translate(171 154)">
    <path id="Path_3" data-name="Path 3" d="M23,0,257-84a23,23,0,0,1,23,23V173a23,23,0,0,1-23,23L23,280A23,23,0,0,1,0,257V23A23,23,0,0,1,23,0Z" transform="translate(447 37)" opacity="0.04" fill="url(#linear-gradient)"/>
    <path id="Path_4" data-name="Path 4" d="M23,0,257-84a23,23,0,0,1,23,23V173a23,23,0,0,1-23,23L23,280A23,23,0,0,1,0,257V23A23,23,0,0,1,23,0Z" transform="translate(750 -70)" opacity="0.02" fill="url(#linear-gradient)"/>
    <path id="Path_1" data-name="Path 1" d="M23,0,257-84a23,23,0,0,1,23,23V173a23,23,0,0,1-23,23L23,280A23,23,0,0,1,0,257V23A23,23,0,0,1,23,0Z" transform="translate(-171 265)" opacity="0.08" fill="url(#linear-gradient)"/>
    <path id="Path_2" data-name="Path 2" d="M23,0,257-84a23,23,0,0,1,23,23V173a23,23,0,0,1-23,23L23,280A23,23,0,0,1,0,257V23A23,23,0,0,1,23,0Z" transform="translate(138 151)" opacity="0.06" fill="url(#linear-gradient)"/>
  </g>
</svg>
