<svg xmlns="http://www.w3.org/2000/svg" width="266.063" height="290.095" viewBox="0 0 266.063 290.095">
  <g id="Group_91" data-name="Group 91" transform="translate(266.063 0) rotate(90)">
    <path id="Path_24" data-name="Path 24" d="M82.792,0,0,84.117H82.792Z" transform="translate(123.555 180.022) rotate(-135)" fill="#E20001"/>
    <path id="Path_33" data-name="Path 33" d="M82.792,0,0,84.117H82.792Z" transform="translate(58.543 241.522) rotate(-135)" fill="#E20001"/>
    <path id="Path_31" data-name="Path 31" d="M62.682,0,0,63.685H62.682Z" transform="translate(245.063 153.689) rotate(-135)" fill="#E20001"/>
    <path id="Path_29" data-name="Path 29" d="M82.792,84.117,0,0H82.792Z" transform="translate(183.034 120.491) rotate(135)" fill="#E20001"/>
    <path id="Path_34" data-name="Path 34" d="M43.128,43.818,0,0H43.128Z" transform="translate(99.647 214.244) rotate(135)" fill="#E20001"/>
    <path id="Path_35" data-name="Path 35" d="M20.094,20.416,0,0H20.094Z" transform="translate(105.97 251.854) rotate(135)" fill="#E20001"/>
    <path id="Path_30" data-name="Path 30" d="M82.792,84.117,0,0H82.792Z" transform="translate(245.94 59.479) rotate(135)" fill="#E20001"/>
    <path id="Path_32" data-name="Path 32" d="M82.792,84.117,0,0H82.792Z" transform="translate(118.023 59.479) rotate(135)" fill="#E20001"/>
  </g>
</svg>
