<svg xmlns="http://www.w3.org/2000/svg" xmlns:xlink="http://www.w3.org/1999/xlink" width="55.001" height="40.792" viewBox="0 0 55.001 40.792">
  <defs>
    <linearGradient id="linear-gradient" x1="0.175" y1="0.428" x2="0.701" y2="0.848" gradientUnits="objectBoundingBox">
      <stop offset="0" stop-color="#e20001"/>
      <stop offset="1" stop-color="#061840"/>
    </linearGradient>
  </defs>
  <g id="Layer_2" data-name="Layer 2" transform="translate(-5 -20.765)">
    <path id="Path_3599" data-name="Path 3599" d="M59.39,25.187a1.558,1.558,0,0,0-1.314-.281l-5.861,1.5c-2.163-.122-9.063-2.774-12.992-4.461l-.079-.031c-5.219-1.876-9.735-1.454-13.512,1.222-5.023-1.717-11.459,1.907-13.445,3.147L6.907,24.93A1.522,1.522,0,0,0,5,26.409V47.8a1.528,1.528,0,0,0,1.528,1.528H9.773L23.664,60.277A4.583,4.583,0,0,0,31.046,58.8a4.571,4.571,0,0,0,6.484-2.157,4.565,4.565,0,0,0,6.478-2.157,4.571,4.571,0,0,0,6.826-4.113l3.27-1.045h4.37A1.528,1.528,0,0,0,60,47.8V26.409A1.516,1.516,0,0,0,59.39,25.187ZM8.056,28.364l2.732.7L9.693,39.242,8.936,46.27h-.88Zm39.307,23.2a1.558,1.558,0,0,1-2.163,0l-2.157-2.157L34.4,40.758a1.528,1.528,0,0,0-2.163,2.151l8.647,8.66a1.528,1.528,0,1,1-2.164,2.157l-2.163-2.164-6.5-6.484a1.53,1.53,0,1,0-2.163,2.163L34.4,53.726a1.528,1.528,0,1,1-2.164,2.157l-6.459-6.478a1.522,1.522,0,0,0-2.157,0,1.5,1.5,0,0,0-.446,1.076,1.522,1.522,0,0,0,.446,1.082l4.321,4.321a1.534,1.534,0,0,1,0,2.163,1.571,1.571,0,0,1-2.163,0,1.278,1.278,0,0,0-.134-.122L11.912,47.12l1.534-14.172.446-4.131c1.943-1.222,5.738-3.111,8.886-3.056a23.877,23.877,0,0,0-2.5,3.471,5.274,5.274,0,0,0,1.552,7.01c2.163,1.479,6.111,2.854,11-1.369L47.363,49.4A1.54,1.54,0,0,1,47.363,51.563Zm2.4-4.052a3.264,3.264,0,0,0-.238-.269L34.982,32.7a26.3,26.3,0,0,0,1.833-2.353,1.528,1.528,0,1,0-2.481-1.76c-2.713,3.844-6.771,7.853-10.756,5.133a2.206,2.206,0,0,1-.611-2.933,17.221,17.221,0,0,1,3.826-4.669A1.289,1.289,0,0,0,26.933,26c3.056-2.444,6.722-2.817,11.171-1.222,1.155.489,8.849,3.746,12.882,4.522L52.331,46.71Zm7.181-1.241H55.308L53.981,29.1l2.964-.739Z" fill="url(#linear-gradient)"/>
  </g>
</svg>
