<svg xmlns="http://www.w3.org/2000/svg" width="31.999" height="32" viewBox="0 0 31.999 32">
  <g id="Group_412" data-name="Group 412" transform="translate(0 0)">
    <g id="Group_409" data-name="Group 409" transform="translate(0 0)">
      <path id="Path_3665" data-name="Path 3665" d="M2835.872,3342.855c-1.035-.851-1.035-.851-2.012-1.641a8.026,8.026,0,0,0,.892-1.454c.926.666,1.205.866,1.993,1.454a9.248,9.248,0,0,1-.874,1.641" transform="translate(-2814.676 -3336.04)" fill="#061840"/>
      <path id="Path_3666" data-name="Path 3666" d="M2639.15,3204.684c-.854-.7-1.112-.907-1.7-1.4a7.289,7.289,0,0,0,.923-1.19c.526.375.526.375,1.675,1.19a8.178,8.178,0,0,1-.9,1.4" transform="translate(-2620.431 -3199.885)" fill="#061840"/>
      <path id="Path_3667" data-name="Path 3667" d="M2497.214,3099.44a15.942,15.942,0,0,1-1.195-1.135,8.923,8.923,0,0,0,.953-.895c.551.438.583.464,1.172.895a7.577,7.577,0,0,1-.93,1.135" transform="translate(-2480.559 -3096.359)" fill="#061840"/>
      <path id="Path_3668" data-name="Path 3668" d="M2432.682,3030.99a2.386,2.386,0,0,1-.492-.832c.536-.319.664-.395.938-.567a2.13,2.13,0,0,0,.506.567,10.085,10.085,0,0,1-.952.832" transform="translate(-2417.433 -3029.287)" fill="#061840"/>
      <path id="Path_3669" data-name="Path 3669" d="M2429.56,3002.775c.043-.307.048-.339.259-.5a4.894,4.894,0,0,1,.945-.207c-.238.063-.262.069-.266.207-.025.013-.622.329-.937.5" transform="translate(-2414.831 -3002.07)" fill="#061840"/>
      <path id="Path_3670" data-name="Path 3670" d="M2671.385,3510.392q-1.027-.924-2.055-1.847c.843-.889.972-1.026,1.513-1.685.822.682,1.318,1.094,2.018,1.685a23.12,23.12,0,0,1-1.477,1.847" transform="translate(-2651.96 -3501.263)" fill="#061840"/>
      <path id="Path_3671" data-name="Path 3671" d="M2469.406,3342.855c-.836-.766-1.182-1.083-1.746-1.641.816-.731,1.035-.927,1.56-1.454.88.761.88.761,1.709,1.454-.725.831-.8.918-1.523,1.641" transform="translate(-2452.512 -3336.04)" fill="#061840"/>
      <path id="Path_3672" data-name="Path 3672" d="M2330.292,3204.684a11.753,11.753,0,0,1-1.162-1.4c.808-.62,1-.768,1.526-1.19a13.7,13.7,0,0,0,1.194,1.19c-.784.733-.784.733-1.559,1.4" transform="translate(-2315.509 -3199.885)" fill="#061840"/>
      <path id="Path_3673" data-name="Path 3673" d="M2268.212,3099.44a3.4,3.4,0,0,1-.473-1.135c.814-.487.814-.487,1.505-.895a2.657,2.657,0,0,0,.488.895c-.762.578-.762.578-1.521,1.135" transform="translate(-2254.794 -3096.359)" fill="#061840"/>
      <path id="Path_3674" data-name="Path 3674" d="M2265.24,3030.99a1.251,1.251,0,0,1,.25-.832c.854-.34.942-.376,1.511-.567-.229.257-.253.284-.257.567-.665.362-.866.472-1.5.832" transform="translate(-2252.322 -3029.287)" fill="#061840"/>
      <path id="Path_3675" data-name="Path 3675" d="M2301.52,3002.775a2.387,2.387,0,0,1,.954-.5,9.477,9.477,0,0,1,1.544-.207,2.419,2.419,0,0,0-.982.207c-.716.212-.826.245-1.515.5" transform="translate(-2288.202 -3002.07)" fill="#061840"/>
      <path id="Path_3676" data-name="Path 3676" d="M2450,3703.685c-1.621-1.541-1.667-1.587-2.112-2.021.925-.857,1.349-1.248,2-1.885l2.066,1.885c-1,1.063-1.056,1.127-1.955,2.021" transform="translate(-2432.959 -3692.044)" fill="#061840"/>
      <path id="Path_3677" data-name="Path 3677" d="M2251.969,3510.392c-.914-.95-1.079-1.122-1.7-1.847,1.424-1.225,1.681-1.448,1.953-1.685.863.868.863.868,1.746,1.685-.892.834-.892.834-2,1.847" transform="translate(-2237.517 -3501.263)" fill="#061840"/>
      <path id="Path_3678" data-name="Path 3678" d="M2117.612,3342.855a12.294,12.294,0,0,1-1.122-1.641c.894-.683.894-.683,1.912-1.454a12.486,12.486,0,0,0,1.154,1.454l-1.944,1.641" transform="translate(-2105.211 -3336.04)" fill="#061840"/>
      <path id="Path_3679" data-name="Path 3679" d="M2057.587,3204.684a4.678,4.678,0,0,1-.457-1.4c1.058-.677,1.1-.7,1.9-1.19a3.749,3.749,0,0,0,.47,1.19c-.781.571-1.211.886-1.908,1.4" transform="translate(-2046.505 -3199.885)" fill="#061840"/>
      <path id="Path_3680" data-name="Path 3680" d="M2054.74,3099.44a2.311,2.311,0,0,1,.243-1.135c1.027-.5,1.134-.558,1.9-.895a1.444,1.444,0,0,0-.248.895c-.9.524-1.108.648-1.894,1.135" transform="translate(-2044.141 -3096.359)" fill="#061840"/>
      <path id="Path_3681" data-name="Path 3681" d="M2090,3030.99a2.945,2.945,0,0,1,.923-.832c1.029-.335,1.161-.377,1.927-.567a2.386,2.386,0,0,0-.947.567c-.922.381-1.088.449-1.9.832" transform="translate(-2079.013 -3029.287)" fill="#061840"/>
      <path id="Path_3682" data-name="Path 3682" d="M2201.55,3002.775a6.388,6.388,0,0,1,1.53-.5,14.692,14.692,0,0,1,1.978-.207,6.81,6.81,0,0,0-1.573.207,19.252,19.252,0,0,0-1.934.5" transform="translate(-2189.333 -3002.07)" fill="#061840"/>
      <path id="Path_3683" data-name="Path 3683" d="M2204.85,3919.054c-1.044-1.072-1.292-1.327-2.06-2.162,1.178-1.125,1.178-1.125,2.176-2.051.909.9.909.9,2.111,2.051-1.612,1.556-1.792,1.734-2.227,2.162" transform="translate(-2190.56 -3904.719)" fill="#061840"/>
      <path id="Path_3684" data-name="Path 3684" d="M2012.64,3703.685c-.887-1.034-1.047-1.22-1.65-2.021,1.176-1.059,1.176-1.059,2.127-1.885.817.959.9,1.06,1.688,1.885-1.007.928-1.346,1.241-2.164,2.021" transform="translate(-2000.874 -3692.044)" fill="#061840"/>
      <path id="Path_3685" data-name="Path 3685" d="M1881.714,3510.392a13.159,13.159,0,0,1-1.094-1.847c1.14-.936,1.185-.972,2.1-1.685a13.063,13.063,0,0,0,1.116,1.685c-1,.854-1.3,1.112-2.119,1.847" transform="translate(-1871.94 -3501.263)" fill="#061840"/>
      <path id="Path_3686" data-name="Path 3686" d="M1823.156,3342.855a6.091,6.091,0,0,1-.446-1.641c1.129-.811,1.2-.86,2.086-1.454a5.063,5.063,0,0,0,.455,1.454c-1.019.781-1.261.967-2.095,1.641" transform="translate(-1814.668 -3336.04)" fill="#061840"/>
      <path id="Path_3687" data-name="Path 3687" d="M1820.38,3204.684a3.6,3.6,0,0,1,.238-1.4c1.12-.668,1.212-.722,2.089-1.19a2.566,2.566,0,0,0-.242,1.19c-1.026.668-1.239.807-2.085,1.4" transform="translate(-1812.364 -3199.885)" fill="#061840"/>
      <path id="Path_3688" data-name="Path 3688" d="M1854.92,3099.44a3.982,3.982,0,0,1,.9-1.135c1.115-.508,1.231-.561,2.107-.895a3.065,3.065,0,0,0-.918.895c-1.043.538-1.231.635-2.091,1.135" transform="translate(-1846.523 -3096.359)" fill="#061840"/>
      <path id="Path_3689" data-name="Path 3689" d="M1963.9,3030.99a6.779,6.779,0,0,1,1.49-.832,19.688,19.688,0,0,1,2.143-.567,6.258,6.258,0,0,0-1.521.567c-1.072.388-1.237.447-2.113.832" transform="translate(-1954.302 -3029.287)" fill="#061840"/>
      <path id="Path_3690" data-name="Path 3690" d="M2138.06,3002.775a12.008,12.008,0,0,1,1.947-.5,16.993,16.993,0,0,1,2.2-.207,12.3,12.3,0,0,0-2,.207,19.212,19.212,0,0,0-2.153.5" transform="translate(-2126.543 -3002.07)" fill="#061840"/>
      <path id="Path_3691" data-name="Path 3691" d="M1965.035,4152.922c-1.118-1.21-1.185-1.282-2.015-2.256,1.1-1.184,1.169-1.256,2.106-2.186,1.066,1.166,1.107,1.212,2.048,2.186-1.19,1.223-1.213,1.247-2.14,2.256" transform="translate(-1953.432 -4135.767)" fill="#061840"/>
      <path id="Path_3692" data-name="Path 3692" d="M1775.935,3919.083c-.873-1.1-1.03-1.3-1.625-2.162,1.1-1.119,1.161-1.186,2.082-2.051.8,1.05.879,1.16,1.643,2.051-1.067,1.063-1.289,1.284-2.1,2.162" transform="translate(-1766.802 -3904.748)" fill="#061840"/>
      <path id="Path_3693" data-name="Path 3693" d="M1646.581,3703.685a14.227,14.227,0,0,1-1.082-2.021c1.075-1.017,1.162-1.1,2.07-1.885a13.878,13.878,0,0,0,1.091,1.885c-1.051.986-1.27,1.192-2.079,2.021" transform="translate(-1639.41 -3692.044)" fill="#061840"/>
      <path id="Path_3694" data-name="Path 3694" d="M1588.631,3510.392a7.487,7.487,0,0,1-.442-1.847c1.078-.92,1.166-.995,2.065-1.685a6.339,6.339,0,0,0,.445,1.685c-1.041.893-1.257,1.08-2.069,1.847" transform="translate(-1582.732 -3501.263)" fill="#061840"/>
      <path id="Path_3695" data-name="Path 3695" d="M1585.91,3342.855a4.944,4.944,0,0,1,.236-1.641c1.06-.788,1.172-.871,2.066-1.454a3.881,3.881,0,0,0-.238,1.454c-1.058.8-1.249.948-2.065,1.641" transform="translate(-1580.477 -3336.04)" fill="#061840"/>
      <path id="Path_3696" data-name="Path 3696" d="M1620.17,3204.684a5.18,5.18,0,0,1,.893-1.4,23.108,23.108,0,0,1,2.073-1.19,4.177,4.177,0,0,0-.9,1.19c-1.056.677-1.245.8-2.067,1.4" transform="translate(-1614.36 -3199.885)" fill="#061840"/>
      <path id="Path_3697" data-name="Path 3697" d="M1728,3099.44a7.966,7.966,0,0,1,1.471-1.135,18.9,18.9,0,0,1,2.089-.895,6.8,6.8,0,0,0-1.484.895,22.218,22.218,0,0,0-2.076,1.135" transform="translate(-1721.001 -3096.359)" fill="#061840"/>
      <path id="Path_3698" data-name="Path 3698" d="M1899.84,3030.99a12.432,12.432,0,0,1,1.765-.781q.146-.052.292-.1a15.689,15.689,0,0,1,1.974-.517,12.154,12.154,0,0,0-1.937.566,18.263,18.263,0,0,0-2.094.832" transform="translate(-1890.948 -3029.287)" fill="#061840"/>
      <path id="Path_3699" data-name="Path 3699" d="M1756.058,4401.433c-1.043-1.086-1.231-1.282-2-2.17.852-1.109,1.029-1.34,1.812-2.252,1,1.169,1.13,1.319,2.011,2.252-.971,1.111-1.146,1.312-1.825,2.17" transform="translate(-1746.775 -4381.541)" fill="#061840"/>
      <path id="Path_3700" data-name="Path 3700" d="M1566.559,4152.922a26.165,26.165,0,0,1-1.63-2.256,28.393,28.393,0,0,1,1.819-2.186c.787,1.124.869,1.241,1.624,2.186-1.007,1.189-1.09,1.287-1.813,2.256" transform="translate(-1559.728 -4135.767)" fill="#061840"/>
      <path id="Path_3701" data-name="Path 3701" d="M1436.438,3919.083a15.452,15.452,0,0,1-1.088-2.162,26.811,26.811,0,0,1,1.828-2.051,14.871,14.871,0,0,0,1.082,2.051c-.961,1.075-1.134,1.269-1.821,2.162" transform="translate(-1431.577 -3904.748)" fill="#061840"/>
      <path id="Path_3702" data-name="Path 3702" d="M1378.025,3703.685a8.4,8.4,0,0,1-.445-2.021,24.082,24.082,0,0,1,1.833-1.885,7.64,7.64,0,0,0,.442,1.885,26.666,26.666,0,0,0-1.829,2.021" transform="translate(-1374.443 -3692.044)" fill="#061840"/>
      <path id="Path_3703" data-name="Path 3703" d="M1375.3,3510.392a6.248,6.248,0,0,1,.238-1.847,20.271,20.271,0,0,1,1.832-1.685,5.246,5.246,0,0,0-.237,1.685,23.482,23.482,0,0,0-1.833,1.847" transform="translate(-1372.188 -3501.263)" fill="#061840"/>
      <path id="Path_3704" data-name="Path 3704" d="M1409.83,3342.855a6.609,6.609,0,0,1,.9-1.641,16.143,16.143,0,0,1,1.824-1.454,5.516,5.516,0,0,0-.893,1.454,19.027,19.027,0,0,0-1.83,1.641" transform="translate(-1406.337 -3336.04)" fill="#061840"/>
      <path id="Path_3705" data-name="Path 3705" d="M1518.44,3204.615a9.326,9.326,0,0,1,1.358-1.311q.118-.094.238-.187a13.392,13.392,0,0,1,1.695-1.1,8.17,8.17,0,0,0-1.469,1.19,15.555,15.555,0,0,0-1.822,1.4" transform="translate(-1513.75 -3199.817)" fill="#061840"/>
      <path id="Path_3706" data-name="Path 3706" d="M1599.531,4654.816c-1.036-1.009-1.222-1.191-1.991-2.031a20.179,20.179,0,0,1,1.332-2.146c1.022,1.149,1.105,1.243,2,2.146a19.948,19.948,0,0,0-1.337,2.031" transform="translate(-1591.979 -4632.359)" fill="#061840"/>
      <path id="Path_3707" data-name="Path 3707" d="M1407.892,4401.363a22.547,22.547,0,0,1-1.652-2.17,20.013,20.013,0,0,1,1.351-2.252,23.969,23.969,0,0,0,1.634,2.252,20.373,20.373,0,0,0-1.334,2.17" transform="translate(-1402.787 -4381.472)" fill="#061840"/>
      <path id="Path_3708" data-name="Path 3708" d="M1274.24,4152.872a14.262,14.262,0,0,1-1.12-2.255,15.969,15.969,0,0,1,1.386-2.187,15.6,15.6,0,0,0,1.092,2.187,18.089,18.089,0,0,0-1.358,2.255" transform="translate(-1271.134 -4135.718)" fill="#061840"/>
      <path id="Path_3709" data-name="Path 3709" d="M1214.089,3919.083a9.19,9.19,0,0,1-.459-2.162,14.676,14.676,0,0,1,1.4-2.051,8.732,8.732,0,0,0,.447,2.051,15.869,15.869,0,0,0-1.39,2.162" transform="translate(-1212.299 -3904.748)" fill="#061840"/>
      <path id="Path_3710" data-name="Path 3710" d="M1211.22,3703.685a7.334,7.334,0,0,1,.245-2.021,12.726,12.726,0,0,1,1.4-1.885,6.507,6.507,0,0,0-.239,1.885,14.391,14.391,0,0,0-1.4,2.021" transform="translate(-1209.916 -3692.044)" fill="#061840"/>
      <path id="Path_3711" data-name="Path 3711" d="M1246.71,3510.423a7.779,7.779,0,0,1,.842-1.72q.082-.128.166-.253a10.471,10.471,0,0,1,1.288-1.559,6.986,6.986,0,0,0-.9,1.685,12.31,12.31,0,0,0-1.393,1.847" transform="translate(-1245.015 -3501.294)" fill="#061840"/>
      <path id="Path_3712" data-name="Path 3712" d="M1510.17,4895.56c-1.031-.917-1.217-1.082-1.99-1.859a10.243,10.243,0,0,1,.728-2c1.025,1.079,1.108,1.167,1.991,2a9.087,9.087,0,0,0-.729,1.86" transform="translate(-1503.604 -4870.724)" fill="#061840"/>
      <path id="Path_3713" data-name="Path 3713" d="M1317.077,4654.816a20.986,20.986,0,0,1-1.667-2.031,11.066,11.066,0,0,1,.74-2.146,22.072,22.072,0,0,0,1.655,2.146,10.211,10.211,0,0,0-.729,2.031" transform="translate(-1312.958 -4632.359)" fill="#061840"/>
      <path id="Path_3714" data-name="Path 3714" d="M1179.883,4401.363a12.789,12.789,0,0,1-1.153-2.17,11.257,11.257,0,0,1,.77-2.252,13.656,13.656,0,0,0,1.127,2.252,11.006,11.006,0,0,0-.744,2.17" transform="translate(-1177.784 -4381.472)" fill="#061840"/>
      <path id="Path_3715" data-name="Path 3715" d="M1116.594,4152.872a9.237,9.237,0,0,1-.484-2.255,9.835,9.835,0,0,1,.8-2.187,9.419,9.419,0,0,0,.463,2.187,10.76,10.76,0,0,0-.777,2.255" transform="translate(-1115.854 -4135.718)" fill="#061840"/>
      <path id="Path_3716" data-name="Path 3716" d="M1113.55,3919.083a7.75,7.75,0,0,1,.219-2.01q.037-.152.076-.3a8.64,8.64,0,0,1,.751-1.9,7.482,7.482,0,0,0-.247,2.051,9.743,9.743,0,0,0-.8,2.162" transform="translate(-1113.322 -3904.748)" fill="#061840"/>
      <path id="Path_3717" data-name="Path 3717" d="M1168,3755.356a15.9,15.9,0,0,1,.963-2.272q.1-.2.211-.394c-.187.384-.427.9-.58,1.3-.192.4-.437.947-.594,1.365" transform="translate(-1167.172 -3744.369)" fill="#061840"/>
      <path id="Path_3718" data-name="Path 3718" d="M1492.7,5119.509c-1.028-.808-1.213-.954-1.99-1.657a6.332,6.332,0,0,1,.058-1.822c1.028.991,1.112,1.072,1.99,1.822a5.2,5.2,0,0,0-.058,1.657" transform="translate(-1486.293 -5092.582)" fill="#061840"/>
      <path id="Path_3719" data-name="Path 3719" d="M1299.3,4895.56a18.283,18.283,0,0,1-1.669-1.86,7.452,7.452,0,0,1,.06-2,20.188,20.188,0,0,0,1.668,2,6.532,6.532,0,0,0-.058,1.859" transform="translate(-1295.336 -4870.724)" fill="#061840"/>
      <path id="Path_3720" data-name="Path 3720" d="M1161.366,4654.816a11.414,11.414,0,0,1-1.159-2.031,8.273,8.273,0,0,1,.063-2.146,12.526,12.526,0,0,0,1.156,2.146,7.623,7.623,0,0,0-.06,2.031" transform="translate(-1159.428 -4632.359)" fill="#061840"/>
      <path id="Path_3721" data-name="Path 3721" d="M1097.145,4401.354a8.237,8.237,0,0,1-.477-2.011q-.017-.159-.031-.318a8.485,8.485,0,0,1,.084-2.093,9.055,9.055,0,0,0,.489,2.252,8.307,8.307,0,0,0-.064,2.17" transform="translate(-1096.573 -4381.463)" fill="#061840"/>
      <path id="Path_3722" data-name="Path 3722" d="M1092.883,4213.651c0-.107,0-.214,0-.321a16.184,16.184,0,0,1,.209-2.6c.006-.039.013-.078.02-.117-.051.449-.1,1.05-.112,1.5-.051.46-.106,1.077-.114,1.54" transform="translate(-1092.88 -4197.213)" fill="#061840"/>
      <path id="Path_3723" data-name="Path 3723" d="M1502.9,5322.883a22.8,22.8,0,0,1-1.991-1.421,5.435,5.435,0,0,1-.616-1.613c1.01.868,1.116.959,1.99,1.613a4.334,4.334,0,0,0,.617,1.421" transform="translate(-1495.801 -5294.156)" fill="#061840"/>
      <path id="Path_3724" data-name="Path 3724" d="M1309.655,5119.509a14.724,14.724,0,0,1-1.659-1.657,6.759,6.759,0,0,1-.626-1.822,16.939,16.939,0,0,0,1.668,1.823,5.708,5.708,0,0,0,.617,1.656" transform="translate(-1305.007 -5092.582)" fill="#061840"/>
      <path id="Path_3725" data-name="Path 3725" d="M1172.1,4895.56a9.428,9.428,0,0,1-1.072-1.722c-.044-.092-.087-.185-.13-.277a7.533,7.533,0,0,1-.584-1.861,10.964,10.964,0,0,0,1.157,2,6.88,6.88,0,0,0,.629,1.859" transform="translate(-1169.457 -4870.724)" fill="#061840"/>
      <path id="Path_3726" data-name="Path 3726" d="M1116.115,4716.431c-.076-.2-.147-.4-.215-.6a15.914,15.914,0,0,1-.57-2.249c.1.44.255,1.024.4,1.453.1.423.248.987.387,1.4" transform="translate(-1115.083 -4694.608)" fill="#061840"/>
    </g>
    <g id="Group_410" data-name="Group 410" transform="translate(15.8 0.09)">
      <path id="Path_3621" data-name="Path 3621" d="M2759.162,3010.957c.3.118.7.272.989.4a17.233,17.233,0,0,0-2.055-.709,13.117,13.117,0,0,0-1.966-.45c.333.058.778.132,1.108.2a15.957,15.957,0,0,1,1.924.554" transform="translate(-2753.602 -3010.2)" fill="#e20001"/>
      <path id="Path_3622" data-name="Path 3622" d="M3206.921,3156.777c.236.2.555.473.779.69a14.8,14.8,0,0,0-1.806-1.27,8.974,8.974,0,0,0-1.555-1.058c.293.156.686.36.973.527a16.121,16.121,0,0,1,1.609,1.11" transform="translate(-3196.873 -3153.542)" fill="#e20001"/>
      <path id="Path_3623" data-name="Path 3623" d="M2978.106,3066.573a21.343,21.343,0,0,0-2.045-1,7.728,7.728,0,0,0-1.561-.769,18.193,18.193,0,0,1,2.052.769,8.6,8.6,0,0,1,1.554,1" transform="translate(-2969.567 -3064.199)" fill="#e20001"/>
      <path id="Path_3624" data-name="Path 3624" d="M3577.183,3431.954c.158.273.374.634.513.917a11.791,11.791,0,0,0-1.416-1.712,7.1,7.1,0,0,0-1.05-1.548c.235.235.551.543.773.79a16.116,16.116,0,0,1,1.18,1.553" transform="translate(-3563.676 -3424.989)" fill="#e20001"/>
      <path id="Path_3625" data-name="Path 3625" d="M3377.531,3280.673a18.4,18.4,0,0,0-1.833-1.505,5.587,5.587,0,0,0-1.019-1.318,15.583,15.583,0,0,1,1.811,1.318,6.762,6.762,0,0,1,1.041,1.505" transform="translate(-3365.336 -3274.901)" fill="#e20001"/>
      <path id="Path_3626" data-name="Path 3626" d="M3148.312,3157.468c-1.061-.7-1.173-.77-2.048-1.27a4.3,4.3,0,0,0-1.014-1.058,22.57,22.57,0,0,1,2.045,1.058,5.239,5.239,0,0,1,1.016,1.27" transform="translate(-3138.435 -3153.542)" fill="#e20001"/>
      <path id="Path_3627" data-name="Path 3627" d="M3843.4,3809.8c.062.323.152.754.19,1.081a9.319,9.319,0,0,0-.882-2.037,6.852,6.852,0,0,0-.454-1.921c.156.3.369.686.506.991a15.96,15.96,0,0,1,.64,1.886" transform="translate(-3827.754 -3798.092)" fill="#e20001"/>
      <path id="Path_3628" data-name="Path 3628" d="M3688.91,3610.728a14.3,14.3,0,0,0-1.456-1.889,5.816,5.816,0,0,0-.415-1.75,12.35,12.35,0,0,1,1.426,1.75,6.662,6.662,0,0,1,.445,1.889" transform="translate(-3674.254 -3600.476)" fill="#e20001"/>
      <path id="Path_3629" data-name="Path 3629" d="M3485.406,3432.871a23.222,23.222,0,0,0-1.857-1.712,4.575,4.575,0,0,0-.389-1.548,19.967,19.967,0,0,1,1.838,1.548,5.581,5.581,0,0,1,.408,1.712" transform="translate(-3472.621 -3424.989)" fill="#e20001"/>
      <path id="Path_3630" data-name="Path 3630" d="M3255.406,3280.673c-1.086-.831-1.174-.9-2.06-1.505a3.307,3.307,0,0,0-.376-1.318c1.051.639,1.24.753,2.05,1.318a4.324,4.324,0,0,1,.386,1.505" transform="translate(-3244.968 -3274.901)" fill="#e20001"/>
      <path id="Path_3631" data-name="Path 3631" d="M3958.982,4262.579q0,.569-.039,1.128c-.05.338-.108.792-.182,1.127a11.192,11.192,0,0,1,.022-4.344c.056.338.139.789.171,1.13q.028.476.028.959" transform="translate(-3942.783 -4246.636)" fill="#e20001"/>
      <path id="Path_3632" data-name="Path 3632" d="M3864.863,4030.078a10.51,10.51,0,0,0-.9-2.155,7.852,7.852,0,0,0,.242-2.062,9.688,9.688,0,0,1,.888,2.063,8.185,8.185,0,0,1-.227,2.155" transform="translate(-3849.225 -4014.606)" fill="#e20001"/>
      <path id="Path_3633" data-name="Path 3633" d="M3704.316,3810.917a16.432,16.432,0,0,0-1.477-2.037,7.142,7.142,0,0,0,.26-1.92,14.76,14.76,0,0,1,1.461,1.92,7.823,7.823,0,0,1-.245,2.037" transform="translate(-3689.881 -3798.131)" fill="#e20001"/>
      <path id="Path_3634" data-name="Path 3634" d="M3496.4,3610.728c-.964-1.03-1.043-1.114-1.875-1.889a6.12,6.12,0,0,0,.278-1.75,24.737,24.737,0,0,1,1.861,1.75,7.044,7.044,0,0,1-.263,1.889" transform="translate(-3483.856 -3600.476)" fill="#e20001"/>
      <path id="Path_3635" data-name="Path 3635" d="M3263.306,3432.871c-1.09-.933-1.179-1.009-2.076-1.712a4.92,4.92,0,0,0,.3-1.548c1.06.762,1.251.9,2.062,1.548a5.987,5.987,0,0,1-.281,1.712" transform="translate(-3253.137 -3424.989)" fill="#e20001"/>
      <path id="Path_3636" data-name="Path 3636" d="M3836.3,4751.684c-.151.3-.346.7-.515.985a6.826,6.826,0,0,0,.474-1.911,9.442,9.442,0,0,0,.9-2.028c-.055.324-.121.758-.2,1.077a15.96,15.96,0,0,1-.659,1.877" transform="translate(-3821.366 -4729.466)" fill="#e20001"/>
      <path id="Path_3637" data-name="Path 3637" d="M3861.89,4511.163a7.842,7.842,0,0,0-.22-2.054,10.694,10.694,0,0,0,.923-2.149,8.083,8.083,0,0,1,.205,2.149,9.7,9.7,0,0,1-.907,2.054" transform="translate(-3846.961 -4490.375)" fill="#e20001"/>
      <path id="Path_3638" data-name="Path 3638" d="M3768.685,4264.834a3.059,3.059,0,0,1,.019-4.344,3.039,3.039,0,0,1-.019,4.344" transform="translate(-3754.115 -4246.636)" fill="#e20001"/>
      <path id="Path_3639" data-name="Path 3639" d="M3608.208,4030.078a18.383,18.383,0,0,0-1.478-2.155,12.125,12.125,0,0,0,.912-2.062,17.4,17.4,0,0,1,1.479,2.063,12.572,12.572,0,0,1-.913,2.155" transform="translate(-3594.83 -4014.606)" fill="#e20001"/>
      <path id="Path_3640" data-name="Path 3640" d="M3398.939,3810.917c-.968-1.1-1.047-1.194-1.889-2.037a11.45,11.45,0,0,0,.924-1.92c.988.955,1.166,1.127,1.878,1.92a12.1,12.1,0,0,1-.914,2.037" transform="translate(-3387.46 -3798.131)" fill="#e20001"/>
      <path id="Path_3641" data-name="Path 3641" d="M3163.379,3610.728c-1.118-1.039-1.185-1.1-2.1-1.889a10.44,10.44,0,0,0,.947-1.75c1.074.872,1.268,1.029,2.081,1.75a11.474,11.474,0,0,1-.927,1.889" transform="translate(-3154.288 -3600.476)" fill="#e20001"/>
      <path id="Path_3642" data-name="Path 3642" d="M3565.909,5189.563c-.231.237-.536.557-.78.782a7.132,7.132,0,0,0,1.067-1.535,11.945,11.945,0,0,0,1.43-1.7c-.152.275-.351.646-.521.911a16.206,16.206,0,0,1-1.2,1.542" transform="translate(-3553.688 -5162.968)" fill="#e20001"/>
      <path id="Path_3643" data-name="Path 3643" d="M3678.93,4980.2a5.771,5.771,0,0,0,.434-1.739,14.528,14.528,0,0,0,1.47-1.878,6.641,6.641,0,0,1-.464,1.878,12.419,12.419,0,0,1-1.44,1.739" transform="translate(-3666.234 -4954.792)" fill="#e20001"/>
      <path id="Path_3644" data-name="Path 3644" d="M3699.04,4752.669a7.112,7.112,0,0,0-.239-1.911,16.559,16.559,0,0,0,1.491-2.028,7.622,7.622,0,0,1,.224,2.028,14.835,14.835,0,0,1-1.477,1.911" transform="translate(-3685.886 -4729.466)" fill="#e20001"/>
      <path id="Path_3645" data-name="Path 3645" d="M3605.793,4511.163a11.986,11.986,0,0,0-.894-2.054,18.491,18.491,0,0,0,1.494-2.149,12.166,12.166,0,0,1,.894,2.149,17.473,17.473,0,0,1-1.493,2.054" transform="translate(-3593.02 -4490.375)" fill="#e20001"/>
      <path id="Path_3646" data-name="Path 3646" d="M3446.388,4264.834a2.336,2.336,0,0,1,.016-4.344,18.535,18.535,0,0,1,1.476,2.174,18.748,18.748,0,0,1-1.492,2.169" transform="translate(-3434.803 -4246.636)" fill="#e20001"/>
      <path id="Path_3647" data-name="Path 3647" d="M3236.15,4030.078c-.97-1.161-1.049-1.256-1.9-2.155a24.548,24.548,0,0,0,1.492-2.062c1,1.032,1.176,1.217,1.891,2.063a24.191,24.191,0,0,1-1.484,2.155" transform="translate(-3226.454 -4014.606)" fill="#e20001"/>
      <path id="Path_3648" data-name="Path 3648" d="M2997.311,3810.917c-1.127-1.11-1.195-1.176-2.13-2.037.847-1.009.978-1.164,1.522-1.92,1.066.944,1.289,1.14,2.1,1.92a24.512,24.512,0,0,1-1.5,2.037" transform="translate(-2990.019 -3798.131)" fill="#e20001"/>
      <path id="Path_3649" data-name="Path 3649" d="M3192.418,5545.107c-.292.158-.68.372-.979.518a9.048,9.048,0,0,0,1.57-1.042,14.9,14.9,0,0,0,1.815-1.254c-.234.208-.542.488-.787.683a16.09,16.09,0,0,1-1.619,1.095" transform="translate(-3184.115 -5515.263)" fill="#e20001"/>
      <path id="Path_3650" data-name="Path 3650" d="M3363.45,5379.985a5.535,5.535,0,0,0,1.037-1.3,18.64,18.64,0,0,0,1.842-1.492,6.806,6.806,0,0,1-1.059,1.492,15.736,15.736,0,0,1-1.82,1.3" transform="translate(-3354.23 -5350.953)" fill="#e20001"/>
      <path id="Path_3651" data-name="Path 3651" d="M3474,5190.425a4.522,4.522,0,0,0,.409-1.535,23.981,23.981,0,0,0,1.866-1.7,5.526,5.526,0,0,1-.428,1.7,20.179,20.179,0,0,1-1.847,1.535" transform="translate(-3463.562 -5163.047)" fill="#e20001"/>
      <path id="Path_3652" data-name="Path 3652" d="M3489.668,4980.2a6.088,6.088,0,0,0-.258-1.739c.99-.932,1.168-1.1,1.884-1.878a6.841,6.841,0,0,1,.243,1.878,24.138,24.138,0,0,1-1.87,1.739" transform="translate(-3478.803 -4954.792)" fill="#e20001"/>
      <path id="Path_3653" data-name="Path 3653" d="M3394.965,4752.669a11.305,11.305,0,0,0-.905-1.911c1-1.013,1.179-1.2,1.9-2.028a11.752,11.752,0,0,1,.895,2.028c-.971,1.042-1.05,1.126-1.888,1.911" transform="translate(-3384.503 -4729.466)" fill="#e20001"/>
      <path id="Path_3654" data-name="Path 3654" d="M3234.567,4511.163a23.829,23.829,0,0,0-1.477-2.054c1.009-1.08,1.191-1.274,1.91-2.149a23.551,23.551,0,0,1,1.468,2.149c-.974,1.111-1.054,1.2-1.9,2.054" transform="translate(-3225.307 -4490.375)" fill="#e20001"/>
      <path id="Path_3655" data-name="Path 3655" d="M3022.5,4264.834c-.988-1.158-1.047-1.227-1.917-2.169,1.027-1.123,1.211-1.324,1.927-2.174,1.005,1.092,1.187,1.29,1.9,2.174-.976,1.168-1.056,1.264-1.912,2.169" transform="translate(-3015.138 -4246.636)" fill="#e20001"/>
      <path id="Path_3656" data-name="Path 3656" d="M2780.747,4027.64c-.2-.2-.239-.228-.4-.383-.2-.192-.551-.544-.785-.766-.168-.159-.15-.137-.387-.359l-.328-.312c-.731.8-.92.993-1.971,2.063.1.094.241.226.323.3.216.207.239.236.391.385.191.187.572.57.806.807l.377.383c.074.076.192.19.277.278.878-.938.937-1.007,1.934-2.155C2780.918,4027.813,2780.809,4027.7,2780.747,4027.64Z" transform="translate(-2774.123 -4014.566)" fill="#e20001"/>
      <path id="Path_3657" data-name="Path 3657" d="M2742.391,5791.528c-.333.06-.777.143-1.112.191a13.22,13.22,0,0,0,1.978-.43,17.5,17.5,0,0,0,2.061-.689c-.3.12-.693.284-.994.393a15.962,15.962,0,0,1-1.932.535" transform="translate(-2738.916 -5759.809)" fill="#e20001"/>
      <path id="Path_3658" data-name="Path 3658" d="M2960.99,5683.986a7.74,7.74,0,0,0,1.577-.75,21.481,21.481,0,0,0,2.05-.987,8.8,8.8,0,0,1-1.569.987,17.808,17.808,0,0,1-2.057.75" transform="translate(-2956.206 -5652.652)" fill="#e20001"/>
      <path id="Path_3659" data-name="Path 3659" d="M3133.56,5545.645a4.236,4.236,0,0,0,1.032-1.041c1.05-.6,1.239-.714,2.052-1.254a5.339,5.339,0,0,1-1.035,1.254,22.165,22.165,0,0,1-2.049,1.041" transform="translate(-3126.873 -5515.283)" fill="#e20001"/>
      <path id="Path_3660" data-name="Path 3660" d="M3243.389,5380.034a3.262,3.262,0,0,0,.4-1.3c1.058-.732,1.249-.864,2.062-1.492a4.284,4.284,0,0,1-.406,1.492c-1.087.729-1.175.788-2.053,1.3" transform="translate(-3235.493 -5351.003)" fill="#e20001"/>
      <path id="Path_3661" data-name="Path 3661" d="M3256.036,5190.425a4.856,4.856,0,0,0-.275-1.535c1.072-.845,1.264-1,2.079-1.7a5.77,5.77,0,0,1,.262,1.7c-1.089.845-1.178.914-2.065,1.535" transform="translate(-3247.728 -5163.047)" fill="#e20001"/>
      <path id="Path_3662" data-name="Path 3662" d="M3158.878,4980.2a10.522,10.522,0,0,0-.928-1.739c1.063-.92,1.285-1.113,2.1-1.878a10.943,10.943,0,0,1,.909,1.878c-1.115.965-1.182,1.022-2.083,1.739" transform="translate(-3150.995 -4954.792)" fill="#e20001"/>
      <path id="Path_3663" data-name="Path 3663" d="M2995.127,4752.669a24.057,24.057,0,0,0-1.507-1.911c1.085-1,1.311-1.211,2.133-2.028a23.877,23.877,0,0,1,1.482,2.028c-1.121,1.049-1.188,1.111-2.107,1.911" transform="translate(-2988.475 -4729.466)" fill="#e20001"/>
      <path id="Path_3664" data-name="Path 3664" d="M2778.381,4511.163c-1.01-1.092-1.07-1.157-1.961-2.054,1.087-1.045,1.345-1.294,2.177-2.149,1.025,1.11,1.21,1.31,1.924,2.149-1.154,1.14-1.2,1.184-2.14,2.054" transform="translate(-2773.669 -4490.375)" fill="#e20001"/>
      <path id="Path_3727" data-name="Path 3727" d="M1436.129,1257.02l-.476.466-1.537,1.5h0l-.246.24,2.222,2.15.354-.379,1.349-1.32.477-.466Z" transform="translate(-1433.87 -1243.181)" fill="#e20001"/>
    </g>
  </g>
</svg>
