<svg xmlns="http://www.w3.org/2000/svg" width="250" height="105.416" viewBox="0 0 250 105.416">
  <g id="biznis" transform="translate(0 0)">
    <g id="Group_411" data-name="Group 411" transform="translate(0 0)">
      <g id="Group_409" data-name="Group 409" transform="translate(0 0)">
        <path id="Path_3665" data-name="Path 3665" d="M2840.52,3350.007c-3.426-2.816-3.426-2.816-6.66-5.434a26.645,26.645,0,0,0,2.955-4.812c3.063,2.2,3.989,2.868,6.6,4.812a30.5,30.5,0,0,1-2.894,5.434" transform="translate(-2770.358 -3327.444)" fill="#061840"/>
        <path id="Path_3666" data-name="Path 3666" d="M2643.077,3210.679c-2.827-2.305-3.68-3-5.626-4.649a24.272,24.272,0,0,0,3.056-3.939c1.74,1.24,1.74,1.24,5.544,3.939a27.046,27.046,0,0,1-2.975,4.649" transform="translate(-2581.112 -3194.794)" fill="#061840"/>
        <path id="Path_3667" data-name="Path 3667" d="M2499.975,3104.129a52.7,52.7,0,0,1-3.955-3.757,29.388,29.388,0,0,0,3.154-2.962c1.824,1.449,1.931,1.537,3.879,2.962a25.119,25.119,0,0,1-3.078,3.757" transform="translate(-2444.841 -3093.932)" fill="#061840"/>
        <path id="Path_3668" data-name="Path 3668" d="M2433.818,3034.222a7.911,7.911,0,0,1-1.628-2.755c1.776-1.055,2.2-1.307,3.105-1.876a7.066,7.066,0,0,0,1.674,1.876,33.548,33.548,0,0,1-3.151,2.755" transform="translate(-2383.339 -3028.587)" fill="#061840"/>
        <path id="Path_3669" data-name="Path 3669" d="M2429.56,3004.4c.144-1.018.16-1.125.856-1.649a16.19,16.19,0,0,1,3.128-.685c-.787.206-.87.228-.883.685-.083.044-2.057,1.089-3.1,1.649" transform="translate(-2380.805 -3002.07)" fill="#061840"/>
        <path id="Path_3670" data-name="Path 3670" d="M2676.132,3518.554q-3.4-3.061-6.8-6.115c2.791-2.944,3.22-3.4,5.009-5.579,2.72,2.26,4.363,3.624,6.682,5.579a76.719,76.719,0,0,1-4.887,6.115" transform="translate(-2611.829 -3488.447)" fill="#061840"/>
        <path id="Path_3671" data-name="Path 3671" d="M2473.438,3350.007c-2.768-2.537-3.914-3.587-5.778-5.434,2.7-2.419,3.425-3.07,5.165-4.812,2.912,2.521,2.912,2.521,5.656,4.812-2.4,2.752-2.653,3.04-5.043,5.434" transform="translate(-2417.515 -3327.444)" fill="#061840"/>
        <path id="Path_3672" data-name="Path 3672" d="M2332.976,3210.679a38.957,38.957,0,0,1-3.846-4.649c2.677-2.053,3.314-2.541,5.052-3.939a45.13,45.13,0,0,0,3.954,3.939c-2.6,2.427-2.6,2.427-5.161,4.649" transform="translate(-2284.039 -3194.794)" fill="#061840"/>
        <path id="Path_3673" data-name="Path 3673" d="M2269.3,3104.129a11.282,11.282,0,0,1-1.565-3.757c2.7-1.612,2.7-1.612,4.983-2.962a8.8,8.8,0,0,0,1.614,2.962c-2.522,1.914-2.522,1.914-5.034,3.757" transform="translate(-2224.887 -3093.932)" fill="#061840"/>
        <path id="Path_3674" data-name="Path 3674" d="M2265.24,3034.222a4.142,4.142,0,0,1,.827-2.755c2.825-1.127,3.12-1.245,5-1.876-.757.852-.837.94-.85,1.876-2.2,1.2-2.865,1.561-4.979,2.755" transform="translate(-2222.478 -3028.587)" fill="#061840"/>
        <path id="Path_3675" data-name="Path 3675" d="M2301.52,3004.4a7.9,7.9,0,0,1,3.156-1.649,31.281,31.281,0,0,1,5.112-.685,7.993,7.993,0,0,0-3.251.685c-2.371.7-2.735.812-5.017,1.649" transform="translate(-2257.435 -3002.07)" fill="#061840"/>
        <path id="Path_3676" data-name="Path 3676" d="M2454.882,3712.707c-5.365-5.1-5.519-5.252-6.992-6.69,3.064-2.836,4.464-4.13,6.623-6.237l6.839,6.237c-3.3,3.521-3.5,3.731-6.47,6.69" transform="translate(-2398.466 -3674.331)" fill="#061840"/>
        <path id="Path_3677" data-name="Path 3677" d="M2255.9,3518.554c-3.027-3.146-3.573-3.713-5.625-6.115,4.715-4.055,5.565-4.795,6.467-5.579,2.857,2.874,2.857,2.874,5.777,5.579-2.951,2.762-2.951,2.762-6.619,6.115" transform="translate(-2208.054 -3488.447)" fill="#061840"/>
        <path id="Path_3678" data-name="Path 3678" d="M2120.205,3350.007a40.646,40.646,0,0,1-3.715-5.434c2.958-2.262,2.958-2.262,6.33-4.812a41.393,41.393,0,0,0,3.819,4.812l-6.434,5.434" transform="translate(-2079.154 -3327.444)" fill="#061840"/>
        <path id="Path_3679" data-name="Path 3679" d="M2058.644,3210.679a15.527,15.527,0,0,1-1.514-4.649c3.5-2.24,3.638-2.328,6.274-3.939a12.417,12.417,0,0,0,1.555,3.939c-2.584,1.891-4.008,2.932-6.314,4.649" transform="translate(-2021.959 -3194.794)" fill="#061840"/>
        <path id="Path_3680" data-name="Path 3680" d="M2054.74,3104.129a7.658,7.658,0,0,1,.8-3.757c3.4-1.672,3.753-1.847,6.288-2.962a4.778,4.778,0,0,0-.821,2.962c-2.963,1.733-3.667,2.146-6.271,3.757" transform="translate(-2019.656 -3093.932)" fill="#061840"/>
        <path id="Path_3681" data-name="Path 3681" d="M2090,3034.222a9.738,9.738,0,0,1,3.057-2.755c3.406-1.108,3.844-1.249,6.378-1.876a7.9,7.9,0,0,0-3.135,1.876c-3.052,1.26-3.6,1.488-6.3,2.755" transform="translate(-2053.63 -3028.587)" fill="#061840"/>
        <path id="Path_3682" data-name="Path 3682" d="M2201.55,3004.4a21.16,21.16,0,0,1,5.064-1.649,48.522,48.522,0,0,1,6.547-.685,22.584,22.584,0,0,0-5.208.685,63.636,63.636,0,0,0-6.4,1.649" transform="translate(-2161.111 -3002.07)" fill="#061840"/>
        <path id="Path_3683" data-name="Path 3683" d="M2209.608,3928.789c-3.455-3.547-4.278-4.392-6.818-7.158,3.9-3.725,3.9-3.725,7.2-6.79,3.008,2.975,3.008,2.975,6.988,6.79-5.336,5.151-5.931,5.739-7.372,7.157" transform="translate(-2162.306 -3881.547)" fill="#061840"/>
        <path id="Path_3684" data-name="Path 3684" d="M2016.453,3712.707c-2.937-3.423-3.466-4.041-5.463-6.69,3.892-3.5,3.892-3.5,7.04-6.237,2.7,3.176,2.985,3.507,5.588,6.237-3.334,3.073-4.457,4.109-7.164,6.69" transform="translate(-1977.502 -3674.331)" fill="#061840"/>
        <path id="Path_3685" data-name="Path 3685" d="M1884.243,3518.554a43.636,43.636,0,0,1-3.623-6.115c3.774-3.1,3.922-3.219,6.943-5.579a43.259,43.259,0,0,0,3.694,5.579c-3.3,2.827-4.292,3.681-7.014,6.115" transform="translate(-1851.887 -3488.447)" fill="#061840"/>
        <path id="Path_3686" data-name="Path 3686" d="M1824.186,3350.007a20.168,20.168,0,0,1-1.476-5.434c3.738-2.686,3.962-2.845,6.9-4.812a16.788,16.788,0,0,0,1.507,4.812c-3.375,2.585-4.175,3.2-6.934,5.434" transform="translate(-1796.089 -3327.444)" fill="#061840"/>
        <path id="Path_3687" data-name="Path 3687" d="M1820.38,3210.679a11.9,11.9,0,0,1,.788-4.649c3.709-2.211,4.012-2.391,6.914-3.939a8.49,8.49,0,0,0-.8,3.939c-3.395,2.211-4.1,2.672-6.9,4.649" transform="translate(-1793.844 -3194.794)" fill="#061840"/>
        <path id="Path_3688" data-name="Path 3688" d="M1854.92,3104.129a13.185,13.185,0,0,1,2.988-3.757c3.69-1.682,4.076-1.857,6.974-2.962a10.161,10.161,0,0,0-3.04,2.962c-3.453,1.78-4.076,2.1-6.921,3.757" transform="translate(-1827.125 -3093.932)" fill="#061840"/>
        <path id="Path_3689" data-name="Path 3689" d="M1963.9,3034.222a22.423,22.423,0,0,1,4.932-2.755,65.272,65.272,0,0,1,7.095-1.876,20.715,20.715,0,0,0-5.034,1.876c-3.548,1.283-4.094,1.48-6.993,2.755" transform="translate(-1932.13 -3028.587)" fill="#061840"/>
        <path id="Path_3690" data-name="Path 3690" d="M2138.06,3004.4a39.7,39.7,0,0,1,6.445-1.649,56.142,56.142,0,0,1,7.292-.685,40.741,40.741,0,0,0-6.61.685,63.43,63.43,0,0,0-7.126,1.649" transform="translate(-2099.937 -3002.07)" fill="#061840"/>
        <path id="Path_3691" data-name="Path 3691" d="M1969.69,4163.184c-3.7-4.006-3.921-4.245-6.671-7.467,3.651-3.921,3.87-4.156,6.972-7.237,3.529,3.859,3.666,4.012,6.781,7.237-3.94,4.048-4.015,4.126-7.083,7.467" transform="translate(-1931.281 -4106.665)" fill="#061840"/>
        <path id="Path_3692" data-name="Path 3692" d="M1779.688,3928.816c-2.889-3.647-3.41-4.3-5.378-7.157,3.629-3.7,3.845-3.926,6.891-6.79,2.633,3.475,2.909,3.839,5.439,6.79-3.532,3.518-4.268,4.25-6.952,7.157" transform="translate(-1749.455 -3881.576)" fill="#061840"/>
        <path id="Path_3693" data-name="Path 3693" d="M1649.08,3712.707a47.012,47.012,0,0,1-3.58-6.69c3.557-3.366,3.847-3.641,6.851-6.237a45.954,45.954,0,0,0,3.611,6.237c-3.478,3.265-4.2,3.944-6.882,6.69" transform="translate(-1625.343 -3674.331)" fill="#061840"/>
        <path id="Path_3694" data-name="Path 3694" d="M1589.651,3518.554a24.755,24.755,0,0,1-1.461-6.115c3.567-3.044,3.859-3.293,6.836-5.579a21.01,21.01,0,0,0,1.474,5.579c-3.444,2.957-4.161,3.574-6.848,6.115" transform="translate(-1570.123 -3488.447)" fill="#061840"/>
        <path id="Path_3695" data-name="Path 3695" d="M1585.91,3350.007a16.375,16.375,0,0,1,.782-5.434c3.51-2.609,3.878-2.882,6.839-4.812a12.84,12.84,0,0,0-.787,4.812c-3.5,2.659-4.133,3.138-6.835,5.434" transform="translate(-1567.927 -3327.444)" fill="#061840"/>
        <path id="Path_3696" data-name="Path 3696" d="M1620.17,3210.679a17.174,17.174,0,0,1,2.957-4.649,76.49,76.49,0,0,1,6.863-3.939,13.838,13.838,0,0,0-2.978,3.939c-3.494,2.24-4.122,2.644-6.842,4.649" transform="translate(-1600.937 -3194.794)" fill="#061840"/>
        <path id="Path_3697" data-name="Path 3697" d="M1728,3104.129a26.334,26.334,0,0,1,4.868-3.757,62.777,62.777,0,0,1,6.916-2.962,22.57,22.57,0,0,0-4.914,2.962,73.825,73.825,0,0,0-6.87,3.757" transform="translate(-1704.834 -3093.932)" fill="#061840"/>
        <path id="Path_3698" data-name="Path 3698" d="M1899.84,3034.222a41.1,41.1,0,0,1,5.843-2.586q.482-.171.967-.333a52.022,52.022,0,0,1,6.534-1.712,40.12,40.12,0,0,0-6.413,1.875,60.1,60.1,0,0,0-6.93,2.755" transform="translate(-1870.406 -3028.587)" fill="#061840"/>
        <path id="Path_3699" data-name="Path 3699" d="M1760.673,4411.648c-3.453-3.594-4.076-4.241-6.613-7.184,2.82-3.673,3.407-4.437,6-7.455,3.316,3.869,3.741,4.365,6.656,7.455-3.215,3.68-3.793,4.343-6.042,7.184" transform="translate(-1729.944 -4346.13)" fill="#061840"/>
        <path id="Path_3700" data-name="Path 3700" d="M1570.324,4163.184a86.647,86.647,0,0,1-5.395-7.467,94.115,94.115,0,0,1,6.021-7.237c2.6,3.721,2.876,4.109,5.375,7.237-3.335,3.938-3.607,4.259-6,7.467" transform="translate(-1547.712 -4106.665)" fill="#061840"/>
        <path id="Path_3701" data-name="Path 3701" d="M1438.953,3928.816a51.224,51.224,0,0,1-3.6-7.157,88.828,88.828,0,0,1,6.052-6.79,49.227,49.227,0,0,0,3.58,6.79c-3.18,3.559-3.753,4.2-6.029,7.157" transform="translate(-1422.858 -3881.576)" fill="#061840"/>
        <path id="Path_3702" data-name="Path 3702" d="M1379.054,3712.707a27.813,27.813,0,0,1-1.474-6.69,79.628,79.628,0,0,1,6.068-6.237,25.289,25.289,0,0,0,1.462,6.237,88.012,88.012,0,0,0-6.055,6.69" transform="translate(-1367.195 -3674.331)" fill="#061840"/>
        <path id="Path_3703" data-name="Path 3703" d="M1375.3,3518.554a20.666,20.666,0,0,1,.789-6.115,67.243,67.243,0,0,1,6.063-5.579,17.379,17.379,0,0,0-.784,5.579,77.41,77.41,0,0,0-6.068,6.115" transform="translate(-1364.999 -3488.447)" fill="#061840"/>
        <path id="Path_3704" data-name="Path 3704" d="M1409.83,3350.007a21.87,21.87,0,0,1,2.979-5.434,53.393,53.393,0,0,1,6.037-4.812,18.3,18.3,0,0,0-2.958,4.812,63.016,63.016,0,0,0-6.059,5.434" transform="translate(-1398.269 -3327.444)" fill="#061840"/>
        <path id="Path_3705" data-name="Path 3705" d="M1518.44,3210.611a30.984,30.984,0,0,1,4.5-4.341q.392-.312.789-.617a44.044,44.044,0,0,1,5.61-3.633,27.072,27.072,0,0,0-4.865,3.939,51.521,51.521,0,0,0-6.031,4.649" transform="translate(-1502.918 -3194.727)" fill="#061840"/>
        <path id="Path_3706" data-name="Path 3706" d="M1604.133,4664.466c-3.428-3.342-4.046-3.944-6.593-6.723a66.921,66.921,0,0,1,4.409-7.1c3.383,3.8,3.659,4.115,6.609,7.1a65.779,65.779,0,0,0-4.426,6.723" transform="translate(-1579.133 -4590.508)" fill="#061840"/>
        <path id="Path_3707" data-name="Path 3707" d="M1411.707,4411.581a74.7,74.7,0,0,1-5.467-7.184,66.328,66.328,0,0,1,4.474-7.457,78.987,78.987,0,0,0,5.41,7.457,67.556,67.556,0,0,0-4.416,7.184" transform="translate(-1394.81 -4346.063)" fill="#061840"/>
        <path id="Path_3708" data-name="Path 3708" d="M1276.826,4163.135a47.189,47.189,0,0,1-3.706-7.465,52.956,52.956,0,0,1,4.587-7.239,51.614,51.614,0,0,0,3.615,7.239,59.865,59.865,0,0,0-4.5,7.465" transform="translate(-1266.546 -4106.617)" fill="#061840"/>
        <path id="Path_3709" data-name="Path 3709" d="M1215.149,3928.816a30.453,30.453,0,0,1-1.519-7.157,48.613,48.613,0,0,1,4.641-6.79,28.883,28.883,0,0,0,1.479,6.79,52.438,52.438,0,0,0-4.6,7.157" transform="translate(-1209.225 -3881.576)" fill="#061840"/>
        <path id="Path_3710" data-name="Path 3710" d="M1211.22,3712.707a24.281,24.281,0,0,1,.811-6.69,42.181,42.181,0,0,1,4.624-6.237,21.529,21.529,0,0,0-.792,6.237,47.647,47.647,0,0,0-4.643,6.69" transform="translate(-1206.903 -3674.331)" fill="#061840"/>
        <path id="Path_3711" data-name="Path 3711" d="M1246.711,3518.583a25.751,25.751,0,0,1,2.787-5.694q.271-.423.551-.838a34.627,34.627,0,0,1,4.264-5.16,23.158,23.158,0,0,0-2.991,5.578,40.732,40.732,0,0,0-4.612,6.115" transform="translate(-1241.099 -3488.477)" fill="#061840"/>
        <path id="Path_3712" data-name="Path 3712" d="M1514.768,4904.478c-3.413-3.034-4.028-3.582-6.587-6.155a33.791,33.791,0,0,1,2.409-6.622c3.392,3.571,3.668,3.863,6.591,6.619a30.1,30.1,0,0,0-2.413,6.158" transform="translate(-1493.032 -4822.776)" fill="#061840"/>
        <path id="Path_3713" data-name="Path 3713" d="M1320.928,4664.466a69.358,69.358,0,0,1-5.518-6.723,36.625,36.625,0,0,1,2.45-7.1,72.777,72.777,0,0,0,5.48,7.1,33.8,33.8,0,0,0-2.413,6.723" transform="translate(-1307.293 -4590.508)" fill="#061840"/>
        <path id="Path_3714" data-name="Path 3714" d="M1182.546,4411.581a42.29,42.29,0,0,1-3.816-7.184,37.364,37.364,0,0,1,2.549-7.457,45.1,45.1,0,0,0,3.731,7.457,36.478,36.478,0,0,0-2.463,7.184" transform="translate(-1175.599 -4346.063)" fill="#061840"/>
        <path id="Path_3715" data-name="Path 3715" d="M1117.711,4163.135a30.582,30.582,0,0,1-1.6-7.465,32.608,32.608,0,0,1,2.641-7.239,31.16,31.16,0,0,0,1.532,7.239,35.563,35.563,0,0,0-2.572,7.465" transform="translate(-1115.263 -4106.617)" fill="#061840"/>
        <path id="Path_3716" data-name="Path 3716" d="M1113.55,3928.817a25.635,25.635,0,0,1,.725-6.655q.121-.5.252-1a28.574,28.574,0,0,1,2.487-6.29,24.766,24.766,0,0,0-.817,6.79,32.245,32.245,0,0,0-2.647,7.157" transform="translate(-1112.796 -3881.576)" fill="#061840"/>
        <path id="Path_3717" data-name="Path 3717" d="M1168,3761.515a52.774,52.774,0,0,1,3.188-7.522q.34-.657.7-1.3c-.62,1.271-1.415,2.986-1.919,4.307-.635,1.335-1.448,3.134-1.966,4.518" transform="translate(-1165.26 -3725.311)" fill="#061840"/>
        <path id="Path_3718" data-name="Path 3718" d="M1497.385,5127.547c-3.4-2.676-4.016-3.159-6.588-5.484a20.944,20.944,0,0,1,.193-6.032c3.4,3.28,3.681,3.549,6.587,6.032a17.212,17.212,0,0,0-.192,5.484" transform="translate(-1476.166 -5038.924)" fill="#061840"/>
        <path id="Path_3719" data-name="Path 3719" d="M1303.24,4904.478a60.787,60.787,0,0,1-5.526-6.158,24.7,24.7,0,0,1,.2-6.619,66.977,66.977,0,0,0,5.521,6.622,21.61,21.61,0,0,0-.193,6.155" transform="translate(-1290.125 -4822.776)" fill="#061840"/>
        <path id="Path_3720" data-name="Path 3720" d="M1164.131,4664.466a37.8,37.8,0,0,1-3.836-6.725,27.356,27.356,0,0,1,.208-7.1,41.388,41.388,0,0,0,3.827,7.1,25.235,25.235,0,0,0-.2,6.723" transform="translate(-1157.715 -4590.508)" fill="#061840"/>
        <path id="Path_3721" data-name="Path 3721" d="M1098.369,4411.572a27.253,27.253,0,0,1-1.58-6.658c-.038-.351-.073-.7-.1-1.054a28.122,28.122,0,0,1,.277-6.93,30,30,0,0,0,1.618,7.457,27.489,27.489,0,0,0-.211,7.184" transform="translate(-1096.478 -4346.053)" fill="#061840"/>
        <path id="Path_3722" data-name="Path 3722" d="M1092.89,4220.677c-.007-.354-.01-.709-.01-1.064a53.564,53.564,0,0,1,.693-8.613c.021-.129.043-.259.065-.389-.167,1.485-.345,3.475-.372,4.971-.17,1.523-.351,3.563-.378,5.1" transform="translate(-1092.88 -4166.529)" fill="#061840"/>
        <path id="Path_3723" data-name="Path 3723" d="M1508.918,5329.893a75.335,75.335,0,0,1-6.59-4.705,17.941,17.941,0,0,1-2.038-5.338c3.344,2.876,3.693,3.176,6.587,5.338a14.36,14.36,0,0,0,2.043,4.705" transform="translate(-1485.43 -5235.31)" fill="#061840"/>
        <path id="Path_3724" data-name="Path 3724" d="M1314.934,5127.547a48.811,48.811,0,0,1-5.493-5.484,22.415,22.415,0,0,1-2.072-6.032,56.273,56.273,0,0,0,5.523,6.033,18.932,18.932,0,0,0,2.043,5.483" transform="translate(-1299.547 -5038.924)" fill="#061840"/>
        <path id="Path_3725" data-name="Path 3725" d="M1176.22,4904.478a31.2,31.2,0,0,1-3.548-5.7q-.219-.457-.43-.919a24.974,24.974,0,0,1-1.933-6.159,36.327,36.327,0,0,0,3.83,6.622,22.78,22.78,0,0,0,2.083,6.155" transform="translate(-1167.486 -4822.776)" fill="#061840"/>
        <path id="Path_3726" data-name="Path 3726" d="M1117.928,4723.018q-.375-.99-.71-2a52.752,52.752,0,0,1-1.888-7.441c.344,1.456.844,3.39,1.317,4.809.332,1.4.819,3.265,1.28,4.631" transform="translate(-1114.511 -4651.153)" fill="#061840"/>
      </g>
      <g id="Group_410" data-name="Group 410" transform="translate(52.3 0.297)">
        <path id="Path_3621" data-name="Path 3621" d="M2766.168,3012.7c.984.391,2.305.9,3.272,1.333a57.154,57.154,0,0,0-6.8-2.346,43.444,43.444,0,0,0-6.507-1.491c1.1.193,2.575.438,3.669.671a52.811,52.811,0,0,1,6.369,1.833" transform="translate(-2747.763 -3010.2)" fill="#e20001"/>
        <path id="Path_3622" data-name="Path 3622" d="M3212.885,3160.56c.782.677,1.836,1.566,2.579,2.285a48.919,48.919,0,0,0-5.977-4.2,29.66,29.66,0,0,0-5.147-3.5c.97.515,2.272,1.191,3.221,1.745a53.276,53.276,0,0,1,5.326,3.675" transform="translate(-3179.625 -3149.853)" fill="#e20001"/>
        <path id="Path_3623" data-name="Path 3623" d="M2986.436,3070.669a70.429,70.429,0,0,0-6.77-3.323,25.629,25.629,0,0,0-5.166-2.546,60.308,60.308,0,0,1,6.792,2.546,28.448,28.448,0,0,1,5.143,3.323" transform="translate(-2958.169 -3062.809)" fill="#e20001"/>
        <path id="Path_3624" data-name="Path 3624" d="M3581.7,3437.37c.522.9,1.237,2.1,1.7,3.033a39.034,39.034,0,0,0-4.688-5.667,23.463,23.463,0,0,0-3.474-5.126c.776.777,1.824,1.8,2.558,2.615a53.338,53.338,0,0,1,3.908,5.143" transform="translate(-3536.986 -3414.312)" fill="#e20001"/>
        <path id="Path_3625" data-name="Path 3625" d="M3384.12,3287.2a61.1,61.1,0,0,0-6.066-4.983,18.487,18.487,0,0,0-3.374-4.364,51.618,51.618,0,0,1,5.994,4.364,22.41,22.41,0,0,1,3.446,4.983" transform="translate(-3343.751 -3268.087)" fill="#e20001"/>
        <path id="Path_3626" data-name="Path 3626" d="M3155.386,3162.845c-3.514-2.308-3.881-2.549-6.78-4.2a14.192,14.192,0,0,0-3.356-3.5,74.133,74.133,0,0,1,6.77,3.5,17.349,17.349,0,0,1,3.365,4.2" transform="translate(-3122.69 -3149.853)" fill="#e20001"/>
        <path id="Path_3627" data-name="Path 3627" d="M3846.044,3816.443c.2,1.07.5,2.5.627,3.577a30.926,30.926,0,0,0-2.918-6.742,22.717,22.717,0,0,0-1.5-6.358c.515.978,1.222,2.271,1.674,3.28a52.731,52.731,0,0,1,2.121,6.242" transform="translate(-3794.267 -3777.86)" fill="#e20001"/>
        <path id="Path_3628" data-name="Path 3628" d="M3693.232,3619.134a47.294,47.294,0,0,0-4.82-6.253,19.23,19.23,0,0,0-1.372-5.791,40.824,40.824,0,0,1,4.72,5.791,22.005,22.005,0,0,1,1.472,6.253" transform="translate(-3644.718 -3585.318)" fill="#e20001"/>
        <path id="Path_3629" data-name="Path 3629" d="M3490.595,3440.4a76.721,76.721,0,0,0-6.147-5.667,15.128,15.128,0,0,0-1.289-5.126,66.165,66.165,0,0,1,6.083,5.126,18.441,18.441,0,0,1,1.352,5.667" transform="translate(-3448.275 -3414.312)" fill="#e20001"/>
        <path id="Path_3630" data-name="Path 3630" d="M3261.032,3287.2c-3.594-2.75-3.887-2.975-6.818-4.983a10.961,10.961,0,0,0-1.244-4.364c3.477,2.115,4.1,2.495,6.784,4.364a14.322,14.322,0,0,1,1.277,4.983" transform="translate(-3226.481 -3268.087)" fill="#e20001"/>
        <path id="Path_3631" data-name="Path 3631" d="M3959.959,4267.407q0,1.883-.129,3.733c-.165,1.12-.359,2.622-.6,3.729a37.084,37.084,0,0,1,.073-14.378c.186,1.119.46,2.611.565,3.74q.093,1.576.094,3.176" transform="translate(-3906.335 -4214.886)" fill="#e20001"/>
        <path id="Path_3632" data-name="Path 3632" d="M3866.949,4039.822a34.773,34.773,0,0,0-2.99-7.134,25.945,25.945,0,0,0,.8-6.828,32.037,32.037,0,0,1,2.942,6.828,27.094,27.094,0,0,1-.752,7.134" transform="translate(-3815.185 -3988.814)" fill="#e20001"/>
        <path id="Path_3633" data-name="Path 3633" d="M3707.727,3820.06a54.365,54.365,0,0,0-4.887-6.743,23.626,23.626,0,0,0,.861-6.357,48.831,48.831,0,0,1,4.838,6.357,25.872,25.872,0,0,1-.811,6.743" transform="translate(-3659.942 -3777.898)" fill="#e20001"/>
        <path id="Path_3634" data-name="Path 3634" d="M3500.729,3619.134c-3.191-3.41-3.453-3.688-6.208-6.253a20.247,20.247,0,0,0,.92-5.791,81.615,81.615,0,0,1,6.161,5.791,23.321,23.321,0,0,1-.873,6.253" transform="translate(-3459.221 -3585.318)" fill="#e20001"/>
        <path id="Path_3635" data-name="Path 3635" d="M3268.1,3440.4c-3.608-3.088-3.9-3.34-6.874-5.667a16.279,16.279,0,0,0,.979-5.126c3.509,2.521,4.141,2.977,6.827,5.126a19.806,19.806,0,0,1-.932,5.667" transform="translate(-3234.44 -3414.312)" fill="#e20001"/>
        <path id="Path_3636" data-name="Path 3636" d="M3837.495,4758.508c-.5.984-1.145,2.311-1.7,3.263a22.562,22.562,0,0,0,1.568-6.325,31.251,31.251,0,0,0,2.981-6.716c-.183,1.073-.4,2.509-.664,3.564a52.7,52.7,0,0,1-2.181,6.214" transform="translate(-3788.043 -4685.316)" fill="#e20001"/>
        <path id="Path_3637" data-name="Path 3637" d="M3862.4,4520.873a25.977,25.977,0,0,0-.729-6.8,35.359,35.359,0,0,0,3.055-7.112,26.727,26.727,0,0,1,.679,7.112,32.035,32.035,0,0,1-3,6.8" transform="translate(-3812.979 -4452.366)" fill="#e20001"/>
        <path id="Path_3638" data-name="Path 3638" d="M3770.753,4274.869a10.126,10.126,0,0,1,.064-14.378,10.06,10.06,0,0,1-.064,14.378" transform="translate(-3722.524 -4214.886)" fill="#e20001"/>
        <path id="Path_3639" data-name="Path 3639" d="M3611.622,4039.822a60.764,60.764,0,0,0-4.892-7.134,40.093,40.093,0,0,0,3.021-6.828,57.533,57.533,0,0,1,4.894,6.828,41.451,41.451,0,0,1-3.022,7.134" transform="translate(-3567.338 -3988.814)" fill="#e20001"/>
        <path id="Path_3640" data-name="Path 3640" d="M3403.3,3820.06c-3.2-3.653-3.464-3.952-6.252-6.743a37.917,37.917,0,0,0,3.06-6.357c3.271,3.161,3.859,3.73,6.218,6.357a40.122,40.122,0,0,1-3.025,6.743" transform="translate(-3365.305 -3777.898)" fill="#e20001"/>
        <path id="Path_3641" data-name="Path 3641" d="M3168.229,3619.134c-3.7-3.439-3.922-3.644-6.949-6.253a34.6,34.6,0,0,0,3.134-5.791c3.556,2.885,4.2,3.4,6.886,5.791a37.907,37.907,0,0,1-3.071,6.253" transform="translate(-3138.135 -3585.318)" fill="#e20001"/>
        <path id="Path_3642" data-name="Path 3642" d="M3567.711,5195.231c-.766.785-1.777,1.844-2.582,2.589a23.535,23.535,0,0,0,3.53-5.081,39.5,39.5,0,0,0,4.737-5.63c-.506.912-1.162,2.139-1.727,3.015a53.386,53.386,0,0,1-3.959,5.107" transform="translate(-3527.255 -5107.707)" fill="#e20001"/>
        <path id="Path_3643" data-name="Path 3643" d="M3678.93,4988.553a19.076,19.076,0,0,0,1.437-5.754,47.952,47.952,0,0,0,4.868-6.22,21.984,21.984,0,0,1-1.538,6.22,41.215,41.215,0,0,1-4.767,5.754" transform="translate(-3636.905 -4904.855)" fill="#e20001"/>
        <path id="Path_3644" data-name="Path 3644" d="M3699.593,4761.771a23.533,23.533,0,0,0-.792-6.325,54.833,54.833,0,0,0,4.937-6.716,25.256,25.256,0,0,1,.742,6.716,49.206,49.206,0,0,1-4.888,6.325" transform="translate(-3656.05 -4685.316)" fill="#e20001"/>
        <path id="Path_3645" data-name="Path 3645" d="M3607.858,4520.873a39.649,39.649,0,0,0-2.958-6.8,61.417,61.417,0,0,0,4.944-7.112,40.331,40.331,0,0,1,2.958,7.112,57.889,57.889,0,0,1-4.944,6.8" transform="translate(-3565.574 -4452.366)" fill="#e20001"/>
        <path id="Path_3646" data-name="Path 3646" d="M3449.779,4274.869a77.93,77.93,0,0,0-4.858-7.179,79.613,79.613,0,0,0,4.912-7.2,61.4,61.4,0,0,1,4.885,7.2,62.112,62.112,0,0,1-4.939,7.179" transform="translate(-3411.43 -4214.886)" fill="#e20001"/>
        <path id="Path_3647" data-name="Path 3647" d="M3240.539,4039.822c-3.21-3.844-3.473-4.159-6.289-7.134a80.838,80.838,0,0,0,4.94-6.828c3.3,3.416,3.9,4.03,6.26,6.828a79.959,79.959,0,0,1-4.911,7.134" transform="translate(-3208.444 -3988.814)" fill="#e20001"/>
        <path id="Path_3648" data-name="Path 3648" d="M3002.232,3820.06c-3.73-3.673-3.954-3.893-7.052-6.743,2.805-3.34,3.237-3.854,5.04-6.357,3.531,3.125,4.268,3.775,6.967,6.357a80.909,80.909,0,0,1-4.955,6.743" transform="translate(-2978.094 -3777.898)" fill="#e20001"/>
        <path id="Path_3649" data-name="Path 3649" d="M3194.679,5549.214c-.968.523-2.251,1.231-3.239,1.715a29.942,29.942,0,0,0,5.2-3.448,49.434,49.434,0,0,0,6.008-4.151c-.773.687-1.8,1.615-2.6,2.26a52.908,52.908,0,0,1-5.361,3.624" transform="translate(-3167.195 -5450.935)" fill="#e20001"/>
        <path id="Path_3650" data-name="Path 3650" d="M3363.45,5386.442a18.343,18.343,0,0,0,3.434-4.313,61.873,61.873,0,0,0,6.1-4.939,22.549,22.549,0,0,1-3.5,4.939,51.723,51.723,0,0,1-6.026,4.313" transform="translate(-3332.931 -5290.854)" fill="#e20001"/>
        <path id="Path_3651" data-name="Path 3651" d="M3474,5197.9a14.994,14.994,0,0,0,1.354-5.08,79.591,79.591,0,0,0,6.176-5.629,18.311,18.311,0,0,1-1.417,5.629,67.133,67.133,0,0,1-6.113,5.08" transform="translate(-3439.449 -5107.785)" fill="#e20001"/>
        <path id="Path_3652" data-name="Path 3652" d="M3490.264,4988.553a20.1,20.1,0,0,0-.854-5.754c3.276-3.087,3.867-3.643,6.237-6.22a22.646,22.646,0,0,1,.806,6.22,79.894,79.894,0,0,1-6.189,5.754" transform="translate(-3454.297 -4904.855)" fill="#e20001"/>
        <path id="Path_3653" data-name="Path 3653" d="M3397.058,4761.771a37.416,37.416,0,0,0-3-6.325c3.309-3.355,3.9-3.96,6.284-6.716a38.924,38.924,0,0,1,2.962,6.716c-3.213,3.445-3.476,3.727-6.248,6.325" transform="translate(-3362.425 -4685.316)" fill="#e20001"/>
        <path id="Path_3654" data-name="Path 3654" d="M3237.978,4520.873a79.3,79.3,0,0,0-4.888-6.8c3.34-3.571,3.941-4.215,6.321-7.112a78.078,78.078,0,0,1,4.859,7.112c-3.225,3.681-3.49,3.98-6.292,6.8" transform="translate(-3207.326 -4452.366)" fill="#e20001"/>
        <path id="Path_3655" data-name="Path 3655" d="M3026.927,4274.869c-3.271-3.831-3.465-4.059-6.347-7.179,3.4-3.717,4.01-4.386,6.38-7.2,3.329,3.615,3.928,4.268,6.3,7.2-3.232,3.866-3.5,4.182-6.331,7.179" transform="translate(-3002.568 -4214.886)" fill="#e20001"/>
        <path id="Path_3656" data-name="Path 3656" d="M2789.683,4031.845c-.66-.662-.789-.753-1.313-1.267-.648-.634-1.823-1.8-2.6-2.534-.557-.526-.5-.455-1.281-1.19-.214-.2-.85-.81-1.087-1.033-2.418,2.65-3.045,3.288-6.523,6.828.325.311.8.746,1.069,1,.714.685.79.781,1.294,1.273.631.616,1.893,1.886,2.669,2.671.49.495.53.536,1.248,1.267.246.251.635.631.918.92,2.9-3.106,3.1-3.335,6.4-7.134C2790.247,4032.418,2789.888,4032.051,2789.683,4031.845Z" transform="translate(-2767.756 -3988.775)" fill="#e20001"/>
        <path id="Path_3657" data-name="Path 3657" d="M2744.959,5793.671c-1.1.2-2.571.474-3.68.634a43.6,43.6,0,0,0,6.546-1.423,57.733,57.733,0,0,0,6.821-2.282c-.985.4-2.292.942-3.292,1.3a52.748,52.748,0,0,1-6.4,1.771" transform="translate(-2733.454 -5689.186)" fill="#e20001"/>
        <path id="Path_3658" data-name="Path 3658" d="M2960.991,5688a25.415,25.415,0,0,0,5.219-2.483,70.53,70.53,0,0,0,6.785-3.266,28.938,28.938,0,0,1-5.194,3.266,58.914,58.914,0,0,1-6.81,2.483" transform="translate(-2945.151 -5584.787)" fill="#e20001"/>
        <path id="Path_3659" data-name="Path 3659" d="M3133.56,5550.948a14.025,14.025,0,0,0,3.416-3.447c3.476-2,4.1-2.361,6.792-4.151a17.646,17.646,0,0,1-3.426,4.151,73.567,73.567,0,0,1-6.782,3.447" transform="translate(-3111.427 -5450.953)" fill="#e20001"/>
        <path id="Path_3660" data-name="Path 3660" d="M3243.39,5386.49a10.8,10.8,0,0,0,1.313-4.312c3.5-2.422,4.136-2.857,6.826-4.937a14.154,14.154,0,0,1-1.343,4.938c-3.6,2.413-3.89,2.609-6.8,4.313" transform="translate(-3217.25 -5290.902)" fill="#e20001"/>
        <path id="Path_3661" data-name="Path 3661" d="M3256.672,5197.9a16.071,16.071,0,0,0-.912-5.08c3.548-2.8,4.186-3.3,6.881-5.629a19.086,19.086,0,0,1,.866,5.629c-3.6,2.8-3.9,3.026-6.837,5.08" transform="translate(-3229.17 -5107.785)" fill="#e20001"/>
        <path id="Path_3662" data-name="Path 3662" d="M3161.023,4988.553a34.549,34.549,0,0,0-3.073-5.754c3.521-3.05,4.253-3.686,6.957-6.22a36.064,36.064,0,0,1,3.01,6.22c-3.69,3.192-3.911,3.383-6.894,5.754" transform="translate(-3134.927 -4904.855)" fill="#e20001"/>
        <path id="Path_3663" data-name="Path 3663" d="M2998.609,4761.771a79.639,79.639,0,0,0-4.989-6.325c3.591-3.323,4.34-4.012,7.06-6.716a79.226,79.226,0,0,1,4.9,6.716c-3.709,3.47-3.932,3.677-6.975,6.325" transform="translate(-2976.591 -4685.316)" fill="#e20001"/>
        <path id="Path_3664" data-name="Path 3664" d="M2782.911,4520.873c-3.341-3.612-3.541-3.829-6.491-6.8,3.6-3.459,4.454-4.281,7.207-7.112,3.395,3.675,4.006,4.336,6.368,7.112-3.821,3.773-3.97,3.92-7.084,6.8" transform="translate(-2767.313 -4452.366)" fill="#e20001"/>
        <path id="Path_3727" data-name="Path 3727" d="M1441.347,1257.02l-1.575,1.542-5.088,4.972h0l-.815.795,7.356,7.115,1.171-1.254,4.467-4.369,1.58-1.542Z" transform="translate(-1433.87 -1211.467)" fill="#e20001"/>
      </g>
    </g>
    <path id="Path_3728" data-name="Path 3728" d="M4258.929,4035.23l-1.23,5.873h10.215a2.889,2.889,0,0,1,2.416,1.021,3.05,3.05,0,0,1,.466,2.635l-3.221,15.209a5.814,5.814,0,0,1-1.992,3.334,5.44,5.44,0,0,1-3.561,1.254H4243.67l6.188-29.326Zm-1.908,9.119-3.6,16.96h4.874l3.6-16.96Z" transform="translate(-4123.05 -3997.546)" fill="#061840"/>
    <path id="Path_3729" data-name="Path 3729" d="M4980.946,4064.555h-9.026l4.96-23.456h9.028Zm5.511-26.079h-9.026l.677-3.247h9.028Z" transform="translate(-4824.665 -3997.546)" fill="#061840"/>
    <path id="Path_3730" data-name="Path 3730" d="M5341.376,4199.163l-12.5,17.6h8.773l-.636,2.919h-17.8l.637-2.934,12.5-17.6h-8.774l.637-2.919h17.8Z" transform="translate(-5159.221 -4152.673)" fill="#061840"/>
    <path id="Path_3731" data-name="Path 3731" d="M5900.6,4064.555h-9.747l-2.8-18.4-3.9,18.4h-9.748l6.188-29.326h9.749l2.8,18.446,3.9-18.446h9.749Z" transform="translate(-5693.918 -3997.546)" fill="#e20001"/>
    <path id="Path_3732" data-name="Path 3732" d="M6701.137,4064.555h-9.027l4.961-23.456h9.027Zm5.511-26.079h-9.027l.679-3.247h9.027Z" transform="translate(-6481.793 -3997.546)" fill="#061840"/>
    <path id="Path_3733" data-name="Path 3733" d="M7078.719,4206.3a2.827,2.827,0,0,1,2.394,1.021,3.1,3.1,0,0,1,.445,2.635l-1.058,5.143a5.585,5.585,0,0,1-1.972,3.335,5.516,5.516,0,0,1-3.581,1.253H7061.17a3.673,3.673,0,0,1-3.072-1.26,3.829,3.829,0,0,1-.529-3.346l.508-2.252h9.029l-.806,3.611h4.874l1.483-6.895h-9.324a3.685,3.685,0,0,1-3.074-1.254,3.809,3.809,0,0,1-.528-3.339l1.06-5.062a4.49,4.49,0,0,1,1.59-2.637,4.4,4.4,0,0,1,2.86-1.021h15.6a2.821,2.821,0,0,1,2.395,1.025,3.118,3.118,0,0,1,.445,2.646l-.679,3.188h-8.984l.806-3.61h-4.876l-1.481,6.819Z" transform="translate(-6833.779 -4152.674)" fill="#061840"/>
  </g>
</svg>
