<svg xmlns="http://www.w3.org/2000/svg" xmlns:xlink="http://www.w3.org/1999/xlink" width="20" height="20" viewBox="0 0 20 20">
  <defs>
    <linearGradient id="linear-gradient" x1="0.109" y1="0.928" x2="0.848" y2="0.139" gradientUnits="objectBoundingBox">
      <stop offset="0" stop-color="#e20001"/>
      <stop offset="1" stop-color="#061840"/>
    </linearGradient>
    <clipPath id="clip-path">
      <rect id="Rectangle_322" data-name="Rectangle 322" width="20" height="20" transform="translate(835 24)" fill="url(#linear-gradient)"/>
    </clipPath>
  </defs>
  <g id="Mask_Group_34" data-name="Mask Group 34" transform="translate(-835 -24)" clip-path="url(#clip-path)">
    <path id="calendar-check_1_" data-name="calendar-check (1)" d="M15.833,1.667H15V.833a.833.833,0,0,0-1.667,0v.833H6.667V.833A.833.833,0,0,0,5,.833v.833H4.167A4.171,4.171,0,0,0,0,5.833v10A4.171,4.171,0,0,0,4.167,20H15.833A4.171,4.171,0,0,0,20,15.833v-10A4.171,4.171,0,0,0,15.833,1.667ZM4.167,3.333H15.833a2.5,2.5,0,0,1,2.5,2.5v.833H1.667V5.833A2.5,2.5,0,0,1,4.167,3.333Zm11.667,15H4.167a2.5,2.5,0,0,1-2.5-2.5v-7.5H18.333v7.5A2.5,2.5,0,0,1,15.833,18.333ZM14.86,10.96a.833.833,0,0,1-.021,1.178l-3.95,3.807a2.5,2.5,0,0,1-3.524-.011L5.488,14.191A.833.833,0,0,1,6.623,12.97l1.9,1.764a.84.84,0,0,0,1.2.022l3.962-3.818a.834.834,0,0,1,1.178.022Z" transform="translate(835 24)" fill="url(#linear-gradient)"/>
  </g>
</svg>
