<svg xmlns="http://www.w3.org/2000/svg" width="41" height="42" viewBox="0 0 41 42">
  <g id="Pinterest" transform="translate(-0.014 0.342)">
    <ellipse id="Oval" cx="20.5" cy="21" rx="20.5" ry="21" transform="translate(0.014 -0.342)" fill="#e20001"/>
    <g id="instagram" transform="translate(9.358 9.6)">
      <path id="Path_312" data-name="Path 312" d="M10.918,1.967c2.915,0,3.261.011,4.412.064a4.817,4.817,0,0,1,3.283,1.193,4.785,4.785,0,0,1,1.193,3.283c.053,1.151.064,1.5.064,4.412s-.011,3.261-.064,4.412a4.84,4.84,0,0,1-1.193,3.283,4.784,4.784,0,0,1-3.283,1.193c-1.151.053-1.5.064-4.412.064s-3.261-.011-4.412-.064a4.875,4.875,0,0,1-3.283-1.193A4.812,4.812,0,0,1,2.031,15.33c-.053-1.151-.064-1.5-.064-4.412s.011-3.261.064-4.412A4.857,4.857,0,0,1,3.224,3.224,4.8,4.8,0,0,1,6.506,2.031c1.151-.053,1.5-.064,4.412-.064m0-1.967c-2.965,0-3.337.013-4.5.066A6.748,6.748,0,0,0,1.832,1.832,6.736,6.736,0,0,0,.066,6.416C.013,7.581,0,7.953,0,10.918s.013,3.337.066,4.5A6.755,6.755,0,0,0,1.832,20a6.742,6.742,0,0,0,4.584,1.767c1.165.053,1.537.066,4.5.066s3.337-.013,4.5-.066A6.752,6.752,0,0,0,20,20a6.734,6.734,0,0,0,1.767-4.584c.053-1.165.066-1.537.066-4.5s-.013-3.337-.066-4.5A6.75,6.75,0,0,0,20,1.832,6.748,6.748,0,0,0,15.42.066C14.255.013,13.883,0,10.918,0Z" transform="translate(0 0)" fill="#fff"/>
      <path id="Path_313" data-name="Path 313" d="M11.444,5.838a5.606,5.606,0,1,0,5.606,5.606A5.607,5.607,0,0,0,11.444,5.838Zm0,9.246a3.639,3.639,0,1,1,3.639-3.639A3.64,3.64,0,0,1,11.444,15.084Z" transform="translate(-0.526 -0.526)" fill="#fff"/>
      <circle id="Ellipse_65" data-name="Ellipse 65" cx="1.31" cy="1.31" r="1.31" transform="translate(15.436 3.779)" fill="#fff"/>
    </g>
  </g>
</svg>
