<svg xmlns="http://www.w3.org/2000/svg" width="65.537" height="57.849" viewBox="0 0 65.537 57.849">
  <g id="right-quote-sign" transform="translate(0.001 -57.197)">
    <path id="Path_9" data-name="Path 9" d="M580.991,57.2H560.558a3.362,3.362,0,0,0-3.361,3.361V80.991a3.362,3.362,0,0,0,3.361,3.361h9.78q-.192,8.026-3.724,12.852a20.247,20.247,0,0,1-8.422,6.3,3.356,3.356,0,0,0-1.667,4.51l2.42,5.108a3.36,3.36,0,0,0,4.376,1.64,37.364,37.364,0,0,0,11.272-7.313,28.374,28.374,0,0,0,7.683-12.226q2.077-6.816,2.077-18.605V60.558A3.362,3.362,0,0,0,580.991,57.2Z" transform="translate(-518.816)" fill="#d01616"/>
    <path id="Path_10" data-name="Path 10" d="M7.126,114.753a37.995,37.995,0,0,0,11.218-7.3,28.224,28.224,0,0,0,7.73-12.179q2.077-6.765,2.077-18.652V60.558A3.362,3.362,0,0,0,24.79,57.2H4.357A3.362,3.362,0,0,0,1,60.558V80.991a3.362,3.362,0,0,0,3.361,3.361h9.78q-.192,8.026-3.724,12.852a20.247,20.247,0,0,1-8.422,6.3,3.356,3.356,0,0,0-1.667,4.51l2.413,5.095A3.37,3.37,0,0,0,7.126,114.753Z" transform="translate(0 0)" fill="#d01616"/>
  </g>
</svg>
