<svg xmlns="http://www.w3.org/2000/svg" width="41" height="42" viewBox="0 0 41 42">
  <g id="Twitter" transform="translate(-0.303 0.342)">
    <ellipse id="Oval" cx="20.5" cy="21" rx="20.5" ry="21" transform="translate(0.303 -0.342)" fill="#e20001"/>
    <path id="Shape" d="M22.35,2.15a9.149,9.149,0,0,1-2.634.721A4.6,4.6,0,0,0,21.733.335a9.179,9.179,0,0,1-2.912,1.112A4.589,4.589,0,0,0,11.007,5.63,13.016,13.016,0,0,1,1.556.839,4.59,4.59,0,0,0,2.974,6.961,4.553,4.553,0,0,1,.9,6.387c0,.019,0,.039,0,.058a4.588,4.588,0,0,0,3.678,4.5,4.6,4.6,0,0,1-2.071.079A4.59,4.59,0,0,0,6.789,14.2a9.2,9.2,0,0,1-5.7,1.963A9.233,9.233,0,0,1,0,16.1a12.97,12.97,0,0,0,7.028,2.06A12.958,12.958,0,0,0,20.075,5.116c0-.2,0-.4-.013-.593A9.3,9.3,0,0,0,22.35,2.15Z" transform="translate(10.241 11.818)" fill="#fff"/>
  </g>
</svg>
