<svg xmlns="http://www.w3.org/2000/svg" xmlns:xlink="http://www.w3.org/1999/xlink" width="25.753" height="25.753" viewBox="0 0 25.753 25.753">
  <defs>
    <linearGradient id="linear-gradient" x1="0.566" y1="0.396" x2="0.313" y2="0.605" gradientUnits="objectBoundingBox">
      <stop offset="0" stop-color="#061840"/>
      <stop offset="1" stop-color="#d01616"/>
    </linearGradient>
  </defs>
  <path id="video-call" d="M21.965,3.8A12.877,12.877,0,0,0,1.9,19.662L.053,24.408a1.006,1.006,0,0,0,1.3,1.3L6.1,23.864A12.877,12.877,0,0,0,21.965,3.8Zm-9.1,19.969a10.807,10.807,0,0,1-6.081-1.86,1.006,1.006,0,0,0-.928-.1l-3.094,1.2,1.2-3.094a1.006,1.006,0,0,0-.1-.928,10.865,10.865,0,1,1,9,4.783ZM19.836,8.73a1.006,1.006,0,0,0-.942-.1L16.527,9.6A1.77,1.77,0,0,0,14.8,7.823H7.168a1.772,1.772,0,0,0-1.73,1.808v6.544a1.772,1.772,0,0,0,1.73,1.808H14.8a1.77,1.77,0,0,0,1.729-1.78l2.367.968a1.006,1.006,0,0,0,1.387-.931V9.565a1.006,1.006,0,0,0-.445-.835Zm-5.32,7.241H7.451V9.834h7.066Zm3.753-1.229-1.742-.712V11.776l1.742-.712Z" transform="translate(0.017 -0.028)" fill="url(#linear-gradient)"/>
</svg>
